<?xml version="1.0" encoding="UTF-8"?>
<svg width="60px" height="60px" viewBox="0 0 60 60" version="1.1" xmlns="http://www.w3.org/2000/svg" xmlns:xlink="http://www.w3.org/1999/xlink">
    <!-- Generator: Sketch 48.2 (47327) - http://www.bohemiancoding.com/sketch -->
    <title>Slice</title>
    <desc>Created with Sketch.</desc>
    <defs></defs>
    <g id="Page-2-Copy-3" stroke="none" stroke-width="1" fill="none" fill-rule="evenodd">
        <path d="M7.20550921,21.3109716 C9.15926567,12.9341593 16.6737086,6.69412849 25.6455889,6.69412849 C36.1028762,6.69412849 44.5801826,15.1714348 44.5801826,25.6287222 C44.5801826,25.7087318 44.5796863,25.7886256 44.5786967,25.8684006 L58,25.8684006 C57.8725424,39.921695 46.5472416,51.274311 32.595176,51.274311 C21.2543121,51.274311 11.6489954,43.7734484 8.38241029,33.4183337 C8.0461101,32.6742008 7.75650961,31.9044416 7.51734604,31.1127934 L0,26.108079 L7.20550921,21.3109716 Z M20.1329857,24.4303301 C21.7214344,24.4303301 23.0091265,23.142638 23.0091265,21.5541893 C23.0091265,19.9657406 21.7214344,18.6780485 20.1329857,18.6780485 C18.544537,18.6780485 17.2568449,19.9657406 17.2568449,21.5541893 C17.2568449,23.142638 18.544537,24.4303301 20.1329857,24.4303301 Z" id="Combined-Shape" stroke="#FFFFFF" fill="#FFFFFF"></path>
    </g>
</svg>