<?xml version="1.0" encoding="UTF-8"?>
<svg width="283px" height="84px" viewBox="0 0 283 84" version="1.1" xmlns="http://www.w3.org/2000/svg" xmlns:xlink="http://www.w3.org/1999/xlink">
    <!-- Generator: Sketch 48.2 (47327) - http://www.bohemiancoding.com/sketch -->
    <title>Slice 2</title>
    <desc>Created with Sketch.</desc>
    <defs></defs>
    <g id="Page-2-Copy-3" stroke="none" stroke-width="1" fill="none" fill-rule="evenodd">
        <path d="M53.559798,30.4212356 C56.4230618,18.1448727 67.4356075,9 80.5840527,9 C95.9093876,9 108.333026,21.4236386 108.333026,36.7489735 C108.333026,36.866229 108.332299,36.9833147 108.330849,37.1002263 L128,37.1002263 C127.813209,57.6955716 111.215785,74.3330262 90.7687924,74.3330262 C74.1485608,74.3330262 60.0718036,63.3403826 55.2845668,48.1647834 C54.7917131,47.0742439 54.3672986,45.9461485 54.0168002,44.7859744 L43,37.4514791 L53.559798,30.4212356 Z M72.5052376,34.9927093 C74.8331366,34.9927093 76.7202716,33.1055744 76.7202716,30.7776754 C76.7202716,28.4497764 74.8331366,26.5626414 72.5052376,26.5626414 C70.1773387,26.5626414 68.2902037,28.4497764 68.2902037,30.7776754 C68.2902037,33.1055744 70.1773387,34.9927093 72.5052376,34.9927093 Z" id="Combined-Shape" stroke="#FFFFFF" fill="#FFFFFF"></path>
        <text id="KUKOO" font-family="Avenir-Heavy, Avenir" font-size="30" font-weight="600" fill="#FFFFFF">
            <tspan x="141" y="49">KUKOO</tspan>
        </text>
    </g>
</svg>