<?xml version="1.0" encoding="UTF-8"?>
<svg width="28px" height="30px" viewBox="0 0 28 30" version="1.1" xmlns="http://www.w3.org/2000/svg" xmlns:xlink="http://www.w3.org/1999/xlink">
    <!-- Generator: Sketch 48.2 (47327) - http://www.bohemiancoding.com/sketch -->
    <title>Icon</title>
    <desc>Created with Sketch.</desc>
    <defs></defs>
    <g id="案例列表" stroke="none" stroke-width="1" fill="none" fill-rule="evenodd">
        <g id="Icon">
            <path d="M22.2218847,25.4321821 L6.85921802,29.4739881 C6.22783063,29.6399727 5.58887568,29.2332837 5.43197477,28.5656092 L0.0897765766,5.84172523 C-0.0671243243,5.17378384 0.317308108,4.49783676 0.948443243,4.33185212 L16.3113622,0.290046145 C16.9424973,0.124061508 17.5814523,0.530750555 17.7383532,1.19842509 L23.0805514,23.922309 C23.2374523,24.5902504 22.8530198,25.2661975 22.2218847,25.4321821" id="Fill-3" fill="#A2B6BD"></path>
            <path d="M20.2506847,23.6611901 L8.03108108,26.8760083 C7.55104505,27.0022314 7.0647027,26.6953466 6.94210811,26.1883195 L1.7669009,5.0637056 L15.7333514,1.3893608 L20.9052793,22.5008988 C21.0293874,23.0127292 20.7355135,23.5336328 20.2506847,23.6611901" id="Fill-5" fill="#FFFFFF"></path>
            <path d="M15.0483099,5.23257229 L8.76218378,6.85559249 C8.57223784,6.90549462 8.37951712,6.78594299 8.32830991,6.5860676 C8.27558919,6.38032137 8.39313874,6.16897115 8.58863423,6.11746788 L14.8747604,4.49444768 C15.0647063,4.44454555 15.2571748,4.56436404 15.308382,4.76397257 C15.361355,4.96971881 15.2438054,5.18106902 15.0483099,5.23257229" id="Fill-7" fill="#E5EEEC"></path>
            <path d="M15.7170054,7.30468501 L9.43087928,8.92770521 C9.24093333,8.97760734 9.04821261,8.8580557 8.99700541,8.65818031 C8.94428468,8.45243408 9.06183423,8.24108387 9.25732973,8.1895806 L15.5434559,6.5665604 C15.7334018,6.51665826 15.9258703,6.63647676 15.9770775,6.83608529 C16.0300505,7.04183152 15.9125009,7.25318174 15.7170054,7.30468501" id="Fill-9" fill="#E5EEEC"></path>
            <path d="M14.1824793,10.0063385 L10.0912,11.02146 C9.90125405,11.0713621 9.70878559,10.9518105 9.65757838,10.7519351 C9.60460541,10.5461888 9.72215495,10.3348386 9.91765045,10.2833354 L14.0089297,9.26821388 C14.1988757,9.21831175 14.3913441,9.33813024 14.4425514,9.53773878 C14.4955243,9.74348501 14.3779748,9.95483522 14.1824793,10.0063385" id="Fill-11" fill="#E5EEEC"></path>
            <path d="M16.0746739,17.0123846 L7.69056577,19.2222218 C7.50061982,19.272124 7.3078991,19.1523055 7.25669189,18.952697 C7.20397117,18.7469507 7.32152072,18.5356005 7.51701622,18.4840972 L15.9011243,16.27426 C16.0910703,16.2243578 16.2835387,16.3441763 16.3347459,16.5437849 C16.3877189,16.7495311 16.2701694,16.9608813 16.0746739,17.0123846" id="Fill-13" fill="#E5EEEC"></path>
            <path d="M17.2050919,14.7956624 L7.20530811,17.3881717 C7.01536216,17.4380738 6.82264144,17.3185222 6.77168649,17.1186468 C6.71871351,16.9131674 6.83626306,16.7015503 7.03175856,16.6503139 L17.0315423,14.0575378 C17.2214883,14.0076357 17.4139568,14.1274542 17.465164,14.3270627 C17.5181369,14.5328089 17.4005874,14.7441591 17.2050919,14.7956624" id="Fill-15" fill="#E5EEEC"></path>
            <path d="M17.0971027,21.3736443 L8.71299459,23.5834815 C8.52304865,23.6333837 8.33032793,23.5135652 8.27912072,23.3139566 C8.2264,23.1082104 8.34394955,22.8968602 8.53944505,22.8453569 L16.9235532,20.6355197 C17.1134991,20.5856175 17.3059676,20.705436 17.3571748,20.9050446 C17.4101477,21.1107908 17.2925982,21.322141 17.0971027,21.3736443" id="Fill-17" fill="#E5EEEC"></path>
            <path d="M18.2275207,19.1569221 L8.22773694,21.7494314 C8.03779099,21.7993335 7.84532252,21.6797818 7.79411532,21.4799065 C7.74114234,21.2744271 7.85869189,21.06281 8.05418739,21.0115736 L18.0539712,18.4187975 C18.2439171,18.3688954 18.4363856,18.4887139 18.4875928,18.6883224 C18.5405658,18.8940686 18.4230162,19.1054188 18.2275207,19.1569221" id="Fill-19" fill="#E5EEEC"></path>
            <path d="M5.34449369,4.58181644 L5.08593514,3.48183465 L12.0556649,1.64826481 L12.3142234,2.74797974 C12.3470162,2.88701189 12.2670523,3.02764518 12.1356288,3.06206964 L5.64139459,4.77075073 C5.50997117,4.80544205 5.37703423,4.72084859 5.34449369,4.58181644 M12.7632324,2.81682868 L12.2546919,0.674239203 L4.47472793,2.72102725 L4.96258378,4.78516097 C5.04481802,5.13367533 5.3793045,5.34475869 5.70824144,5.25589553 L12.4062955,3.4460759 C12.6693946,3.37696011 12.8293225,3.09489297 12.7632324,2.81682868" id="Fill-21" fill="#A2B6BD"></path>
            <path d="M19.0902234,18.5865968 L18.3455748,21.8035498 C18.290836,22.0405182 18.507773,22.2462645 18.7244577,22.1627384 L21.6944757,21.0171242 L19.0902234,18.5865968 Z" id="Fill-23" fill="#CAD8D5"></path>
            <path d="M19.6937874,20.6898249 C18.8858234,19.9591723 18.7907243,18.6737253 19.4816432,17.8189845 L24.5065081,11.6009652 C25.1971748,10.7462244 26.4122739,10.6458864 27.2202378,11.376539 C28.0282018,12.1074585 28.1233009,13.3926386 27.432382,14.2473794 L22.4075171,20.4653987 C21.7168505,21.3201396 20.5017514,21.4204776 19.6937874,20.6898249" id="Fill-25" fill="#A2B6BD"></path>
            <polygon id="Fill-27" fill="#E5EEEC" points="4.18791712 15.1720633 4.12384505 14.9044064 14.5471604 12.1776684 14.6112324 12.4453253"></polygon>
            <path d="M7.21711351,6.85823437 L8.29397838,11.2434844 C8.3472036,11.4596381 8.22486126,11.6800614 8.02078919,11.7366349 L5.99621261,12.3098423 C5.79012252,12.3669496 5.57949189,12.2348557 5.52828468,12.0160335 L4.48623063,7.58194873 C4.43477117,7.3633934 4.56190631,7.14243636 4.76925766,7.09066623 L6.75902342,6.56629354 C6.96132973,6.51559084 7.1648973,6.64528302 7.21711351,6.85823437" id="Fill-29" fill="#A2B6BD"></path>
        </g>
    </g>
</svg>