<?xml version="1.0" encoding="UTF-8"?>
<svg width="28px" height="28px" viewBox="0 0 28 28" version="1.1" xmlns="http://www.w3.org/2000/svg" xmlns:xlink="http://www.w3.org/1999/xlink">
    <!-- Generator: Sketch 48.2 (47327) - http://www.bohemiancoding.com/sketch -->
    <title>Icon</title>
    <desc>Created with Sketch.</desc>
    <defs></defs>
    <g id="案例列表" stroke="none" stroke-width="1" fill="none" fill-rule="evenodd">
        <g id="Icon">
            <path d="M21.9556308,27.2807291 L1.98916923,27.2807291 C1.0304,27.2807291 0.253169231,26.4585007 0.253169231,25.4438983 L0.253169231,9.14320518 C0.253169231,8.12860275 1.0304,7.30637441 1.98916923,7.30637441 L21.9556308,7.30637441 C22.9144,7.30637441 23.6919385,8.12860275 23.6919385,9.14320518 L23.6919385,25.4438983 C23.6919385,26.4585007 22.9144,27.2807291 21.9556308,27.2807291" id="Fill-15" fill="#A2B6BD"></path>
            <path d="M11.9724615,19.9338291 L23.6918462,10.8971296 L23.6918462,9.14297733 C23.6918462,8.1287004 22.9143077,7.30647206 21.9555385,7.30647206 L1.98938462,7.30647206 C1.03061538,7.30647206 0.253076923,8.1287004 0.253076923,9.14297733 L0.253076923,10.8971296 L11.9724615,19.9338291 Z" id="Fill-17" fill="#E5EEEC"></path>
            <path d="M27.8058154,8.16274834 C27.8058154,11.2283645 25.4565846,13.7139289 22.5584308,13.7139289 C19.6605846,13.7139289 17.3113538,11.2283645 17.3113538,8.16274834 C17.3113538,5.09713215 19.6605846,2.61156777 22.5584308,2.61156777 C25.4565846,2.61156777 27.8058154,5.09713215 27.8058154,8.16274834" id="Fill-19" fill="#FFFFFF"></path>
            <path d="M26.3852308,8.16274834 C26.3852308,10.3986496 24.672,12.2110674 22.5584615,12.2110674 C20.4452308,12.2110674 18.732,10.3986496 18.732,8.16274834 C18.732,5.92684713 20.4452308,4.11442931 22.5584615,4.11442931 C24.672,4.11442931 26.3852308,5.92684713 26.3852308,8.16274834" id="Fill-21" fill="#A2B6BD"></path>
            <path d="M18.7318769,3.7330664 C18.7318769,5.07089636 17.7066462,6.15548259 16.4420308,6.15548259 C15.1774154,6.15548259 14.1521846,5.07089636 14.1521846,3.7330664 C14.1521846,2.39523644 15.1774154,1.3106502 16.4420308,1.3106502 C17.7066462,1.3106502 18.7318769,2.39523644 18.7318769,3.7330664" id="Fill-23" fill="#A2B6BD"></path>
            <path d="M22.8111385,1.63931368 C22.8111385,2.52599223 22.1317538,3.24470964 21.2936,3.24470964 C20.4554462,3.24470964 19.7757538,2.52599223 19.7757538,1.63931368 C19.7757538,0.752635142 20.4554462,0.0339177328 21.2936,0.0339177328 C22.1317538,0.0339177328 22.8111385,0.752635142 22.8111385,1.63931368" id="Fill-25" fill="#A2B6BD"></path>
        </g>
    </g>
</svg>