<?xml version="1.0" encoding="UTF-8"?>
<svg width="20px" height="26px" viewBox="0 0 20 26" version="1.1" xmlns="http://www.w3.org/2000/svg" xmlns:xlink="http://www.w3.org/1999/xlink">
    <!-- Generator: Sketch 48.2 (47327) - http://www.bohemiancoding.com/sketch -->
    <title>Icon</title>
    <desc>Created with Sketch.</desc>
    <defs></defs>
    <g id="案例列表" stroke="none" stroke-width="1" fill="none" fill-rule="evenodd">
        <g id="Icon">
            <polygon id="Fill-3" fill="#A2B6BD" points="4.677375 15.1158876 13.539875 12.0725889 10.311125 1.54971 7.886125 0.119700789 0.820375 2.54598237"></polygon>
            <polygon id="Fill-4" fill="#E5EEEC" points="8.51425 2.16672711 7.886 0.119700789 10.311 1.54971"></polygon>
            <polygon id="Fill-5" fill="#C5E7DE" points="6.103575 15.6087608 14.814075 19.1085411 18.527325 8.76603316 17.483575 6.04433447 10.539075 3.25413711"></polygon>
            <polygon id="Fill-6" fill="#9BC6BA" points="16.7613 8.05652961 17.48355 6.04441382 18.5273 8.7661125"></polygon>
            <path d="M12.08905,13.0910507 L12.7073,11.369327 L12.9538,11.4478757 C14.0163,11.7861375 15.1538,11.2595704 15.64005,10.2045849 L15.7948,9.86896776 L15.46005,9.76238487 C14.51055,9.45982697 13.5023,9.84992566 12.9513,10.6891007 L13.45005,9.30008487 L13.2788,9.23132171 L12.78005,10.6203375 C12.7943,10.4936546 12.79905,10.3669717 12.7943,10.2416112 C12.7873,10.0538349 12.7593,9.86870329 12.7118,9.69018355 C12.6803,9.57117039 12.64005,9.45506645 12.5918,9.34292961 C12.5193,9.17445987 12.42855,9.01524671 12.3208,8.86819934 C12.24905,8.77034408 12.1698,8.67804276 12.08355,8.59208882 C11.91105,8.42070987 11.71055,8.27551382 11.48555,8.16522829 L11.1683,8.00998224 L11.0733,8.36993092 C11.0453,8.47572039 11.02455,8.58230329 11.0108,8.68888618 C10.9923,8.83064408 10.98605,8.97240197 10.99155,9.11257303 C10.9983,9.28791908 11.02355,9.46035592 11.06555,9.62776776 C11.18305,10.0956217 11.43355,10.5211599 11.7893,10.8398507 C11.81455,10.8625954 11.84055,10.8848112 11.86705,10.906498 C11.92005,10.9498717 11.97505,10.9908651 12.03205,11.0294783 C12.11755,11.087398 12.20755,11.1397638 12.30205,11.1860467 L12.5358,11.3005638 L11.9178,13.0222875 C11.93205,12.8953401 11.93655,12.7689217 11.93205,12.6435612 C11.9248,12.4555204 11.8968,12.2706533 11.84955,12.0918691 C11.81805,11.9728559 11.7778,11.856752 11.72955,11.7446151 C11.65705,11.5764099 11.56605,11.4169322 11.45855,11.2701493 C11.3868,11.1722941 11.30755,11.0797283 11.2213,10.9940388 C11.0488,10.8223954 10.84805,10.6774638 10.62305,10.5671783 L10.30605,10.4119322 L10.21105,10.7716164 C10.18305,10.8776704 10.1623,10.9842533 10.1483,11.0905717 C10.1298,11.2325941 10.1238,11.374352 10.1293,11.514523 C10.1333,11.6195191 10.14405,11.7237217 10.16105,11.8263375 C10.2513,12.373798 10.52055,12.8773559 10.9268,13.2418007 C10.9523,13.2645454 10.9783,13.2867612 11.0048,13.308448 C11.13705,13.4166178 11.28255,13.5107704 11.4398,13.5877322 L11.67355,13.7022493 L11.0108,15.5485401 L11.18205,15.6173033 L11.8448,13.7710125 L12.09155,13.8495612 C13.15405,14.1880875 14.29155,13.6615204 14.77755,12.6065349 L14.93255,12.2706533 L14.5978,12.1640704 C13.64805,11.861777 12.6398,12.2516112 12.08905,13.0910507" id="Fill-7" fill="#FFFFFF"></path>
            <path d="M13.8883,7.80644329 C14.1563,7.91408408 14.45605,7.77153276 14.5578,7.48801697 C14.65955,7.20450118 14.5248,6.88739724 14.2568,6.77975645 C13.9888,6.67211566 13.68905,6.81466697 13.5873,7.09818276 C13.48555,7.38169855 13.6203,7.6988025 13.8883,7.80644329" id="Fill-9" fill="#FFFFFF"></path>
            <path d="M13.83305,8.49333434 C13.7313,8.77685013 13.86605,9.09395408 14.13405,9.20159487 C14.40205,9.30923566 14.70155,9.16668434 14.80355,8.88316855 C14.9053,8.59965276 14.77055,8.28254882 14.50255,8.17490803 C14.23455,8.06726724 13.9348,8.20981855 13.83305,8.49333434" id="Fill-11" fill="#FFFFFF"></path>
            <path d="M12.836425,8.68023789 C13.104425,8.78787868 13.404175,8.64532737 13.505925,8.36181158 C13.607675,8.07829579 13.472925,7.76119184 13.204925,7.65355105 C12.936925,7.54591026 12.637175,7.68846158 12.535425,7.97197737 C12.433675,8.25549316 12.568425,8.57259711 12.836425,8.68023789" id="Fill-13" fill="#FFFFFF"></path>
            <path d="M8.677775,11.930593 L6.696275,9.83596145 L0.753525,9.83596145 C0.388775,9.83596145 0.093025,10.1488338 0.093025,10.5347009 L0.093025,25.2058496 C0.093025,25.5917167 0.388775,25.9043246 0.753525,25.9043246 L19.246525,25.9043246 C19.611275,25.9043246 19.907025,25.5917167 19.907025,25.2058496 L19.907025,12.6293325 C19.907025,12.2434654 19.611275,11.930593 19.246525,11.930593 L8.677775,11.930593 Z" id="Fill-15" fill="#E5EEEC"></path>
            <path d="M3.88985,5.59769132 L4.62035,5.33559789 C4.7886,5.27529789 4.81035,5.23271763 4.76235,5.08355447 L4.7046,4.90318342 C4.6566,4.75375579 4.6151,4.73418474 4.44685,4.79448474 L3.71635,5.05657816 L3.88985,5.59769132 Z M5.06185,4.64558605 L5.19385,5.05790053 C5.28235,5.33348211 5.1986,5.50433211 4.9236,5.60298079 L3.9981,5.93515974 L4.1691,6.46833868 C4.17985,6.50192684 4.1646,6.53049 4.1306,6.54265579 L3.8456,6.64500711 C3.80885,6.65796632 3.78535,6.64342026 3.7746,6.61009658 L3.2311,4.91482026 C3.22035,4.88149658 3.2306,4.85478474 3.26735,4.84156105 L4.5336,4.38693079 C4.80885,4.28828211 4.97335,4.37000447 5.06185,4.64558605 Z" id="Fill-17" fill="#FFFFFF"></path>
            <path d="M6.047,5.47844013 L6.6995,5.24411645 C6.91875,5.16556776 6.9785,5.06374539 6.91575,4.86803487 L6.7255,4.27534934 C6.66375,4.08228355 6.557,4.03705855 6.33775,4.11587171 L5.68525,4.35019539 L6.047,5.47844013 Z M6.38525,3.72233487 C6.719,3.60279276 6.989,3.73291382 7.098,4.0727625 L7.32775,4.78895724 C7.43675,5.12907039 7.29725,5.40597434 6.96375,5.52578092 L5.8145,5.93835987 C5.778,5.95131908 5.75425,5.9370375 5.7435,5.90344934 L5.19975,4.20817303 C5.18925,4.17484934 5.1995,4.1481375 5.236,4.13491382 L6.38525,3.72233487 Z" id="Fill-19" fill="#FFFFFF"></path>
            <path d="M7.870475,4.03116079 L8.832475,3.68602263 C8.866475,3.67359237 8.891725,3.68470026 8.903225,3.72093316 L8.975975,3.94758711 C8.987475,3.98355553 8.974725,4.01132526 8.940725,4.02349105 L7.978725,4.36862921 L8.189475,5.02558184 C8.200225,5.05917 8.184975,5.08746868 8.150725,5.09963447 L7.865975,5.20198579 C7.829475,5.21520947 7.805725,5.20066342 7.794975,5.16707526 L7.251475,3.47206342 C7.240725,3.43847526 7.250975,3.41176342 7.287475,3.39853974 L8.782725,2.86218711 C8.816725,2.84975684 8.842975,2.86350947 8.853725,2.89683316 L8.927225,3.12613184 C8.937975,3.15972 8.924975,3.18722526 8.890975,3.19965553 L7.736725,3.61382132 L7.870475,4.03116079 Z" id="Fill-21" fill="#FFFFFF"></path>
        </g>
    </g>
</svg>