<?xml version="1.0" encoding="UTF-8"?>
<svg width="479px" height="241px" viewBox="0 0 479 241" version="1.1" xmlns="http://www.w3.org/2000/svg" xmlns:xlink="http://www.w3.org/1999/xlink">
    <!-- Generator: Sketch 48.2 (47327) - http://www.bohemiancoding.com/sketch -->
    <title>avataaar</title>
    <desc>Created with Sketch.</desc>
    <defs>
        <path d="M46.9242424,88.2798132 C36.3804488,83.2710031 28.7738812,73.0828949 27.3923241,61.0032729 C23.7777993,60.5110038 20.9924242,57.4119503 20.9924242,53.6623377 L20.9924242,45.2733766 C20.9924242,41.6021767 23.6625206,38.5546111 27.1666667,37.9667268 L27.1666667,34.5757576 C27.1666667,15.480094 42.6467606,3.5078165e-15 61.7424242,0 C80.8380879,-3.5078165e-15 96.3181818,15.480094 96.3181818,34.5757576 L96.3181818,37.9667268 C99.8223278,38.5546111 102.492424,41.6021767 102.492424,45.2733766 L102.492424,53.6623377 C102.492424,57.4119503 99.7070492,60.5110038 96.0925243,61.0032729 C94.7109673,73.0828949 87.1043997,83.2710031 76.5606061,88.2798132 L76.5606061,99.6106948 C102.698868,100.9346 123.484848,122.54703 123.484848,149.014286 L0,149.014286 C-3.24130399e-15,122.54703 20.7859803,100.9346 46.9242424,99.6106948 L46.9242424,88.2798132 Z" id="path-1"></path>
        <path d="M98.0729754,17.8661097 C123.368174,19.9666592 143.242424,41.1623897 143.242424,67 L19.7575758,67 C19.7575758,41.1623897 39.6318258,19.9666592 64.9270246,17.8661097 C64.8626005,18.4101322 64.8295455,18.9627468 64.8295455,19.5224134 C64.8295455,27.9322039 72.2931622,34.7496861 81.5,34.7496861 C90.7068378,34.7496861 98.1704545,27.9322039 98.1704545,19.5224134 C98.1704545,18.9627468 98.1373995,18.4101322 98.0729754,17.8661097 Z" id="path-3"></path>
        <rect id="path-5" x="0" y="0" width="163" height="171"></rect>
        <path d="M113.246207,23.7866007 C116.579383,20.7634076 117.381701,14.6336581 115.489111,10.6565518 C113.165711,5.77360315 108.450437,5.16186547 103.93182,7.30943796 C99.6728303,9.33389215 95.8815367,10.0083046 91.2174142,9.02741482 C86.7422042,8.08627991 82.4966645,6.42631266 77.8712619,6.15370807 C70.2721678,5.70585767 62.8892941,8.4978236 57.7101963,14.1253641 C56.7220226,15.1989475 55.9258184,16.4264795 55.173225,17.6706436 C54.571028,18.6661372 53.8922063,19.7342442 53.6360433,20.881658 C53.5141774,21.4272728 53.7409948,22.7734608 53.4666945,23.2204999 C53.1699775,23.7032372 52.051175,24.1460168 51.5743084,24.504216 C50.6083477,25.2301475 49.7713857,26.0493811 48.9973944,26.9759121 C47.353631,28.9433709 46.4488072,30.9984525 45.6878584,33.4322193 C43.1582235,41.5211115 42.9438373,51.1419848 46.214042,59.084636 C46.6499471,60.1438184 48.0008654,62.3530515 48.7950318,60.0849975 C48.9519494,59.6367414 48.5887971,58.1343737 48.5896123,57.682061 C48.5924654,56.0208768 49.5181715,45.0226857 53.5509841,38.8615941 C54.863693,36.8561154 60.9327143,29.3461929 62.1723638,29.2859521 C62.8291401,30.3197807 69.4968692,36.9252838 86.7987784,36.1511661 C94.6053442,35.8018867 100.608852,32.3276221 102.050438,30.8215841 C102.684577,34.2005423 110.060788,39.259155 111.184755,41.3405921 C114.431634,47.3533779 115.151846,59.8473864 116.391286,59.823945 C117.630726,59.8005036 118.520475,56.6252941 118.775415,56.0190328 C120.669228,51.5147693 120.991622,45.8614878 120.789667,41.0207279 C120.526168,34.7901715 117.929894,28.057406 113.246207,23.7866007 Z" id="path-7"></path>
        <filter x="-1.2%" y="-4.0%" width="103.0%" height="119.7%" filterUnits="objectBoundingBox" id="filter-9">
            <feOffset dx="0" dy="2" in="SourceAlpha" result="shadowOffsetOuter1"></feOffset>
            <feColorMatrix values="0 0 0 0 0   0 0 0 0 0   0 0 0 0 0  0 0 0 0.2 0" type="matrix" in="shadowOffsetOuter1" result="shadowMatrixOuter1"></feColorMatrix>
            <feMerge>
                <feMergeNode in="shadowMatrixOuter1"></feMergeNode>
                <feMergeNode in="SourceGraphic"></feMergeNode>
            </feMerge>
        </filter>
        <path d="M46.9242424,88.2798132 C36.3804488,83.2710031 28.7738812,73.0828949 27.3923241,61.0032729 C23.7777993,60.5110038 20.9924242,57.4119503 20.9924242,53.6623377 L20.9924242,45.2733766 C20.9924242,41.6021767 23.6625206,38.5546111 27.1666667,37.9667268 L27.1666667,34.5757576 C27.1666667,15.480094 42.6467606,3.5078165e-15 61.7424242,0 C80.8380879,-3.5078165e-15 96.3181818,15.480094 96.3181818,34.5757576 L96.3181818,37.9667268 C99.8223278,38.5546111 102.492424,41.6021767 102.492424,45.2733766 L102.492424,53.6623377 C102.492424,57.4119503 99.7070492,60.5110038 96.0925243,61.0032729 C94.7109673,73.0828949 87.1043997,83.2710031 76.5606061,88.2798132 L76.5606061,99.6106948 C102.698868,100.9346 123.484848,122.54703 123.484848,149.014286 L0,149.014286 C-3.24130399e-15,122.54703 20.7859803,100.9346 46.9242424,99.6106948 L46.9242424,88.2798132 Z" id="path-10"></path>
        <path d="M82.7347017,0.770998519 C105.887404,4.82122627 123.484848,25.0237433 123.484848,49.3363636 L0,49.3363636 C-3.00390197e-15,24.8076426 17.9116613,4.46241429 41.3688275,0.66683495 C41.3678928,0.718095061 41.3674242,0.769426018 41.3674242,0.820826205 C41.3674242,8.04652807 50.6278376,13.9041168 62.0511364,13.9041168 C73.4744351,13.9041168 82.7348485,8.04652807 82.7348485,0.820826205 C82.7348485,0.804209723 82.7347995,0.787600476 82.7347017,0.770998519 Z" id="path-12"></path>
        <path d="M21.7860699,9.28313827 C22.4423399,15.1076061 27.4364921,19.6363636 33.5,19.6363636 C39.5822386,19.6363636 44.5885046,15.0795834 45.2198877,9.22912443 C45.2707018,8.75827595 44.7390905,7.97727273 44.0728277,7.97727273 C34.8330231,7.97727273 27.7540808,7.97727273 23.007567,7.97727273 C22.3374382,7.97727273 21.720411,8.70040854 21.7860699,9.28313827 Z" id="path-14"></path>
        <rect id="path-16" x="0" y="0" width="163" height="171"></rect>
        <path d="M114.572913,45.1493444 C115.656295,45.753106 116.514112,51.805626 116.555623,54.1200684 C116.581589,55.5482577 116.604837,60.9944848 115.07994,60.5236968 C114.615662,60.3803583 113.907052,57.4970696 113.806265,55.8095732 C113.705477,54.1220769 112.737712,48.3807878 111.252887,45.7392791 C110.913626,45.1356556 109.942136,44.0757952 110.361856,43.5651855 C110.882536,42.9320293 111.388182,43.2993924 112.023828,43.5529032 C112.711404,43.8273905 114.451284,45.0817231 114.572913,45.1493444 Z M115.06927,43.3342017 C114.609281,43.9218395 111.468105,42.2722339 110.158167,41.5554259 C99.1556212,35.5338341 97.0199103,33.6190172 79.6853232,33.8688983 C62.3507362,34.1187795 50.4746856,42.163728 49.8066655,42.9866155 C49.3419022,43.559125 48.7485544,45.0877666 48.2606429,49.3460442 C47.7727314,53.6043217 48.3955406,61.2410785 46.6293221,61.2318132 C45.1255922,61.2239249 44.7984442,46.705618 45.4475634,40.9461896 C45.5472241,40.0619321 45.9313231,38.4801274 45.653298,37.6846626 C45.4103044,36.9898946 44.2216609,36.9913101 44.4113983,35.8337005 C44.6270551,34.5159465 45.9683796,35.1704761 46.5525766,34.540413 C47.6590073,33.3468114 45.95218,33.0643344 45.6690925,32.0201605 C45.2483087,30.4680537 46.464289,30.0676927 47.559785,29.5775537 C48.7721204,29.0356509 48.6145795,29.5116357 49.598501,28.4500723 C48.2843108,27.4958785 47.8088534,26.1959184 49.6084232,25.4985218 C50.372638,25.2022951 52.3609328,25.5943658 52.9597095,25.149318 C53.1158328,25.0332537 53.1775937,24.3680074 53.2737787,24.231925 C54.2299583,22.8769658 53.9940521,21.8960812 53.8970572,20.3749115 C53.8172743,19.1301526 53.8280065,17.987506 55.3325416,17.8631515 C56.3365101,17.7802484 57.1529684,18.5926983 58.0524496,18.8319039 C59.0503432,19.0973958 58.6755256,19.2911059 59.4573574,18.7580999 C60.8298661,17.8217 59.8957583,15.9972264 60.984167,14.9087701 C62.4777674,13.4150999 63.456829,15.604549 64.6560023,15.7697485 C67.2592733,16.1290624 66.4237804,13.5101351 67.9649671,12.5504818 C69.8070609,11.4043978 69.9852561,13.9250547 71.1358307,14.0148326 C72.1329143,14.0922762 73.9280292,12.1865172 74.7971362,11.8314496 C77.3759054,10.7773677 78.6536466,13.7434768 81.1084891,13.3651559 C82.8898344,13.0905648 83.3707592,12.8663222 84.9783641,13.8702578 C86.5387878,14.8446719 86.9095555,14.1480841 88.6765237,14.1341321 C89.9249031,14.1248308 90.6895229,15.1580858 91.7337877,15.2658598 C92.2546039,15.3198479 92.7531457,14.7823935 93.3120309,14.8161613 C95.3080206,14.9360674 95.4341747,17.4927164 97.0199103,18.1965835 C98.4687594,18.8397898 100.172144,17.9361466 101.610059,17.7689251 C105.118481,17.3610826 102.715882,20.60704 102.814902,22.5443426 C104.192068,22.8626094 105.589888,21.58934 106.960777,21.8236927 C109.119572,22.1929146 108.304734,24.4090545 107.80437,25.9031291 C109.300198,25.8764383 113.204902,24.2317228 114.174041,26.3352359 C114.673798,27.4198504 113.509454,28.8678228 113.528488,29.9704333 C113.555217,31.52254 114.706602,32.8067284 115.114021,34.2757299 C115.663794,36.2587302 116.447296,41.5737666 115.06927,43.3342017 Z" id="path-18"></path>
        <path d="M46.9242424,88.2798132 C36.3804488,83.2710031 28.7738812,73.0828949 27.3923241,61.0032729 C23.7777993,60.5110038 20.9924242,57.4119503 20.9924242,53.6623377 L20.9924242,45.2733766 C20.9924242,41.6021767 23.6625206,38.5546111 27.1666667,37.9667268 L27.1666667,34.5757576 C27.1666667,15.480094 42.6467606,3.5078165e-15 61.7424242,0 C80.8380879,-3.5078165e-15 96.3181818,15.480094 96.3181818,34.5757576 L96.3181818,37.9667268 C99.8223278,38.5546111 102.492424,41.6021767 102.492424,45.2733766 L102.492424,53.6623377 C102.492424,57.4119503 99.7070492,60.5110038 96.0925243,61.0032729 C94.7109673,73.0828949 87.1043997,83.2710031 76.5606061,88.2798132 L76.5606061,99.6106948 C102.698868,100.9346 123.484848,122.54703 123.484848,149.014286 L0,149.014286 C-3.24130399e-15,122.54703 20.7859803,100.9346 46.9242424,99.6106948 L46.9242424,88.2798132 Z" id="path-20"></path>
        <path d="M66.6818182,7.9613576 L66.6818182,19.2909091 C66.6818182,27.4747649 73.3161442,34.1090909 81.5,34.1090909 C89.6838558,34.1090909 96.3181818,27.4747649 96.3181818,19.2909091 L96.3181818,7.9613576 C107.493954,9.19501688 116.075758,12.5858837 116.075758,21.365035 C116.075758,21.8748397 116.046819,22.376578 115.990114,22.8700531 C132.150151,30.9729565 143.242424,47.6911086 143.242424,67 L19.7575758,67 C19.7575758,47.6911086 30.8498491,30.9729565 47.0098864,22.8700531 C46.9531813,22.376578 46.9242424,21.8748397 46.9242424,21.365035 C46.9242424,12.5858837 55.5060459,9.19501688 66.6818182,7.9613576 Z" id="path-22"></path>
        <rect id="path-24" x="0" y="0" width="163" height="171"></rect>
        <path d="M12.949788,94.6612523 C12.9481751,94.4294023 12.9473684,94.1975209 12.9473684,93.9656122 L12.9473684,55.3489573 C12.9473684,52.9035957 13.1628705,50.5085673 13.5759191,48.1818276 C11.1426204,30.156571 20.1024426,15.82025 30.8270677,7.93928571 C43.0991039,-1.07462332 63.776233,-3.67545111 70.9312754,7.03671391 C76.2651436,4.69091803 84.1696394,6.8290752 90.0150376,12.2142857 C96.2576318,18.3008368 101.166442,32.1662611 97.2484842,42.8408177 C97.6866755,45.0396073 97.9163086,47.3121407 97.9163086,49.6364143 L97.9163086,56.7881864 C97.3729295,53.7216214 94.9405833,51.3076222 91.8646617,50.7915803 L91.8646617,50.6892857 C88.143126,37.5370703 77.2091753,31.5006717 70.5506322,25.5138797 C60.1345807,37.0540256 27.6350116,37.0946678 16.6466165,59.85 L16.6466165,65.887218 C16.6466165,69.6074073 19.3923755,72.6862903 22.9678838,73.2078573 C24.1398943,85.5602566 31.819939,96.0163827 42.5413534,101.109571 L42.5413534,101.378571 C44.3480484,128.161515 38.4465705,161.715574 0,151.457143 C8.61792133,146.461491 13.0690067,113.736172 12.9473684,94.6607143 L12.9497881,94.6612523 Z M72.1353383,101.109571 C82.8567527,96.0163827 90.5367974,85.5602566 91.708808,73.2078573 C95.2843163,72.6862903 98.0300752,69.6074073 98.0300752,65.887218 L98.0300752,63.2665937 C98.7133773,77.5794404 102.466096,91.5982094 109.055403,104.364199 L118.319057,122.311414 C122.840196,131.070579 122.120794,141.151383 117.3031,148.97446 C111.857262,128.698995 93.848959,113.568172 72.1353383,112.439139 L72.1353383,101.109571 Z M56.1071757,161.839286 L94.2389455,161.839286 L56.1071757,161.839286 Z" id="path-26"></path>
    </defs>
    <g id="é¦–é¡µ" stroke="none" stroke-width="1" fill="none" fill-rule="evenodd">
        <g id="Avataaar/Default" transform="translate(162.000000, 28.000000)">
            <g id="Body" stroke-width="1" fill-rule="evenodd" transform="translate(19.757576, 21.985714)">
                <mask id="mask-2" fill="white">
                    <use xlink:href="#path-1"></use>
                </mask>
                <use fill="#D0C6AC" xlink:href="#path-1"></use>
                <g id="Skin/ðŸ‘¶ðŸ»-05-Pale" mask="url(#mask-2)" fill="#FFDBB4">
                    <g transform="translate(-19.757576, 0.000000)" id="Color">
                        <rect x="0" y="0" width="163" height="149"></rect>
                    </g>
                </g>
                <path d="M96.3181818,57.0313853 L96.3181818,61.9170996 C96.3181818,81.0127632 80.8380879,96.4928571 61.7424242,96.4928571 C42.6467606,96.4928571 27.1666667,81.0127632 27.1666667,61.9170996 L27.1666667,57.0313853 C27.1666667,76.1270489 42.6467606,91.6071429 61.7424242,91.6071429 C80.8380879,91.6071429 96.3181818,76.1270489 96.3181818,57.0313853 Z" id="Neck-Shadow" fill-opacity="0.100000001" fill="#000000" mask="url(#mask-2)"></path>
            </g>
            <g id="Clothing/Collar-+-Sweater" transform="translate(0.000000, 103.821429)">
                <mask id="mask-4" fill="white">
                    <use xlink:href="#path-3"></use>
                </mask>
                <use id="Clothes" fill="#E6E6E6" fill-rule="evenodd" xlink:href="#path-3"></use>
                <g id="Color/Palette/Heather" mask="url(#mask-4)" fill="#3C4F5C" fill-rule="evenodd">
                    <rect id="ðŸ–Color" x="0" y="0" width="163" height="67"></rect>
                </g>
                <path d="M96.3181818,13.5702352 C100.134881,16.3450677 102.492424,20.164397 102.492424,24.3806392 C102.492424,28.7694918 99.9378964,32.7282678 95.8421462,35.5265471 L92.3539043,32.815682 L89.5265152,33.0175312 L90.1439394,31.0982218 L90.0959217,31.0609052 C93.8623712,29.146858 96.3181818,26.0083998 96.3181818,22.4613298 L96.3181818,13.5702352 Z M66.6818182,13.1390042 L66.6818182,22.4613298 C66.6818182,26.0083998 69.1376288,29.146858 72.9040783,31.0609052 L72.8560606,31.0982218 L73.4734848,33.0175312 L70.6460957,32.815682 L66.8722489,35.7485031 C62.5831102,32.9396577 59.8901515,28.8868398 59.8901515,24.3806392 C59.8901515,19.9415005 62.5035525,15.9423504 66.6818182,13.1390042 Z" id="Collar" fill="#F2F2F2" fill-rule="evenodd"></path>
            </g>
            <g id="Face" stroke-width="1" fill-rule="evenodd" transform="translate(46.924242, 50.078571)" fill="#000000">
                <g id="Mouth/Default" transform="translate(1.234848, 31.757143)" fill-opacity="0.699999988">
                    <path d="M24.8148148,9.20454545 C24.8148148,13.9491735 28.7033047,17.7954545 33.5,17.7954545 C38.2966953,17.7954545 42.1851852,13.9491735 42.1851852,9.20454545" id="Mouth"></path>
                </g>
                <g id="Nose/Default" transform="translate(17.287879, 24.428571)" fill-opacity="0.16">
                    <path d="M10,5 C10,7.76142375 13.3578644,10 17.5,10 C21.6421356,10 25,7.76142375 25,5" id="Nose"></path>
                </g>
                <g id="Eyes/Default-ðŸ˜€" transform="translate(0.000000, 4.885714)" fill-opacity="0.599999964">
                    <ellipse id="Eye" cx="18.4821429" cy="13.5" rx="3.69642857" ry="3.68181818"></ellipse>
                    <ellipse id="Eye" cx="50.5178571" cy="13.5" rx="3.69642857" ry="3.68181818"></ellipse>
                </g>
                <g id="Eyebrow/Outline/Default" fill-opacity="0.599999964">
                    <g id="I-Browse" transform="translate(7.392857, 3.750000)">
                        <path d="M2.23649045,6.97411046 C4.64835442,3.53116671 11.2605041,1.60052326 16.9561504,3.01948779 C17.617009,3.18412844 18.2843017,2.77410008 18.4465903,2.10366382 C18.608879,1.43322756 18.2047082,0.756263974 17.5438496,0.591623325 C10.929331,-1.05626118 3.2726328,1.17937395 0.227795269,5.52588954 C-0.166406823,6.08861432 -0.036309027,6.86898818 0.51837683,7.26890335 C1.07306269,7.66881852 1.84228835,7.53683524 2.23649045,6.97411046 Z" id="Eyebrow" fill-rule="nonzero"></path>
                        <path d="M37.9686333,6.97411046 C40.3804973,3.53116671 46.992647,1.60052326 52.6882933,3.01948779 C53.3491519,3.18412844 54.0164446,2.77410008 54.1787332,2.10366382 C54.3410218,1.43322756 53.936851,0.756263974 53.2759924,0.591623325 C46.6614738,-1.05626118 39.0047757,1.17937395 35.9599381,5.52588954 C35.565736,6.08861432 35.6958338,6.86898818 36.2505197,7.26890335 C36.8052055,7.66881852 37.5744312,7.53683524 37.9686333,6.97411046 Z" id="Eyebrow" fill-rule="nonzero" transform="translate(44.973309, 3.774499) scale(-1, 1) translate(-44.973309, -3.774499) "></path>
                    </g>
                </g>
            </g>
            <g id="Top" stroke-width="1" fill-rule="evenodd">
                <mask id="mask-6" fill="white">
                    <use xlink:href="#path-5"></use>
                </mask>
                <g id="Mask"></g>
                <g id="Top/Short-Hair/Short-Waved" mask="url(#mask-6)">
                    <g transform="translate(-0.617424, 0.000000)">
                        <g id="Facial-Hair/-Blank" stroke="none" fill="none" transform="translate(30.210526, 43.971429)"></g>
                        <mask id="mask-8" fill="white">
                            <use xlink:href="#path-7"></use>
                        </mask>
                        <use id="Short-Hair" stroke="none" fill="#28354B" fill-rule="evenodd" xlink:href="#path-7"></use>
                        <g id="Color/Hair/Brown" stroke="none" fill="none" mask="url(#mask-8)" fill-rule="evenodd">
                            <g transform="translate(0.616541, 0.000000)" fill="#724133" id="Color">
                                <rect x="0" y="0" width="163" height="171"></rect>
                            </g>
                        </g>
                        <g id="Top/_Resources/Prescription-02" stroke="none" fill="none" mask="url(#mask-8)" fill-rule="evenodd" stroke-width="1">
                            <g transform="translate(38.225564, 51.910714)" id="Wayfarers">
                                <g filter="url(#filter-9)" transform="translate(3.718310, 4.277778)">
                                    <path d="M21.0704225,25.0555556 L19.3613323,25.0555556 C10.7302443,25.0555556 5.57746479,20.3719563 5.57746479,12.5277778 C5.57746479,6.18872222 6.70349653,0 20.1593936,0 L21.9814515,0 C35.4373485,0 36.5633803,6.18872222 36.5633803,12.5277778 C36.5633803,19.9030595 30.1934661,25.0555556 21.0704225,25.0555556 Z M20.0698009,3.66666667 C8.05633803,3.66666667 8.05633803,7.84728749 8.05633803,13.139836 C8.05633803,17.4606317 9.98753771,22.6111111 19.1932564,22.6111111 L21.0704225,22.6111111 C28.7331827,22.6111111 34.084507,18.7165228 34.084507,13.139836 C34.084507,7.84728749 34.084507,3.66666667 22.0710441,3.66666667 L20.0698009,3.66666667 Z" id="Left" fill="#252C2F" fill-rule="nonzero"></path>
                                    <path d="M59.4929577,25.0555556 L57.7838675,25.0555556 C49.1527795,25.0555556 44,20.3719563 44,12.5277778 C44,6.18872222 45.1260317,0 58.5819288,0 L60.4039867,0 C73.8598838,0 74.9859155,6.18872222 74.9859155,12.5277778 C74.9859155,19.9030595 68.6160013,25.0555556 59.4929577,25.0555556 Z M58.4923361,3.66666667 C46.4788732,3.66666667 46.4788732,7.84728749 46.4788732,13.139836 C46.4788732,17.4606317 48.4120742,22.6111111 57.6157916,22.6111111 L59.4929577,22.6111111 C67.1557179,22.6111111 72.5070423,18.7165228 72.5070423,13.139836 C72.5070423,7.84728749 72.5070423,3.66666667 60.4935793,3.66666667 L58.4923361,3.66666667 Z" id="Right" fill="#252C2F" fill-rule="nonzero"></path>
                                    <path d="M1.83098592,3.52706713 C2.25943662,3.11440028 6.94676056,0 20.1408451,0 C31.203662,0 33.545493,1.13218855 37.0902817,2.84281611 L37.3497553,2.96908883 C37.5962037,3.05495603 38.8564897,3.47711822 40.3306855,3.5235415 C41.6737602,3.46670236 42.8225473,3.10774561 43.1582354,2.99273191 C47.2041863,1.05238613 51.1646236,0 60.4225352,0 C73.6166197,0 78.3039437,3.11440028 78.7323944,3.52706713 C79.7449296,3.52706713 80.5633803,4.31536663 80.5633803,5.29060069 L80.5633803,7.05413426 C80.5633803,8.02936832 79.7449296,8.81766782 78.7323944,8.81766782 C78.7323944,8.81766782 74.4554349,8.81766782 74.4554349,10.5812014 C74.4554349,12.344735 73.2394366,8.02936832 73.2394366,7.05413426 L73.2394366,5.3364682 C71.0064408,4.49374537 67.0091562,2.92488494 60.4225352,2.92488494 C53.0841192,2.92488494 49.4294131,4.2081283 46.2943791,5.48235336 L46.3294366,5.56571193 L46.3278892,6.7795205 L44.9538497,10.0488874 L43.2566422,9.387177 C43.1050629,9.32807898 42.778002,9.2219062 42.3244989,9.11160825 C41.0602249,8.80412008 39.7604505,8.71051442 38.6109814,8.94318847 C38.1892672,9.02855132 37.7980008,9.15664965 37.4389262,9.32966957 L35.8014257,10.1186984 L34.1630099,6.96434634 L34.2357746,5.56218486 L34.2858041,5.443068 C31.5821171,4.20069451 29.0891213,2.92488494 20.1408451,2.92488494 C13.5545693,2.92488494 9.55737698,4.49315759 7.32394366,5.33589656 L7.32394366,7.05413426 C7.32394366,8.02936832 5.49295775,12.344735 5.49295775,10.5812014 C5.49295775,8.81766782 1.83098592,8.81766782 1.83098592,8.81766782 C0.82028169,8.81766782 0,8.02936832 0,7.05413426 L0,5.29060069 C0,4.31536663 0.82028169,3.52706713 1.83098592,3.52706713 Z" id="Stuff" fill="#252C2F" fill-rule="nonzero"></path>
                                </g>
                            </g>
                        </g>
                    </g>
                </g>
            </g>
        </g>
        <g id="Avataaar/Default" transform="translate(20.000000, 28.000000)">
            <g id="Body" transform="translate(19.757576, 21.985714)">
                <mask id="mask-11" fill="white">
                    <use xlink:href="#path-10"></use>
                </mask>
                <use fill="#D0C6AC" xlink:href="#path-10"></use>
                <g id="Skin/ðŸ‘¶ðŸ»-05-Pale" mask="url(#mask-11)" fill="#FFDBB4">
                    <g transform="translate(-19.757576, 0.000000)" id="Color">
                        <rect x="0" y="0" width="163" height="149"></rect>
                    </g>
                </g>
                <path d="M96.3181818,57.0313853 L96.3181818,61.9170996 C96.3181818,81.0127632 80.8380879,96.4928571 61.7424242,96.4928571 C42.6467606,96.4928571 27.1666667,81.0127632 27.1666667,61.9170996 L27.1666667,57.0313853 C27.1666667,76.1270489 42.6467606,91.6071429 61.7424242,91.6071429 C80.8380879,91.6071429 96.3181818,76.1270489 96.3181818,57.0313853 Z" id="Neck-Shadow" fill-opacity="0.100000001" fill="#000000" mask="url(#mask-11)"></path>
            </g>
            <g id="Clothing/Blazer-+-Shirt" transform="translate(0.000000, 103.821429)">
                <g id="Shirt" transform="translate(19.757576, 17.663636)">
                    <mask id="mask-13" fill="white">
                        <use xlink:href="#path-12"></use>
                    </mask>
                    <use id="Clothes" fill="#E6E6E6" xlink:href="#path-12"></use>
                    <g id="Color/Palette/Blue-01" mask="url(#mask-13)" fill="#65C9FF">
                        <g transform="translate(-19.757576, -17.663636)" id="ðŸ–Color">
                            <rect x="0" y="0" width="163" height="67"></rect>
                        </g>
                    </g>
                    <g id="Shadowy" opacity="0.599999964" mask="url(#mask-13)" fill="#000000" fill-opacity="0.16">
                        <g transform="translate(37.045455, -15.227273)" id="Hola-ðŸ‘‹ðŸ¼">
                            <ellipse cx="25.0056818" cy="16.9617353" rx="24.4716745" ry="16.3929675"></ellipse>
                        </g>
                    </g>
                </g>
                <g id="Blazer" transform="translate(19.757576, 17.054545)">
                    <path d="M81.7738584,1.22179665 C105.398782,4.87398348 123.484848,25.2976055 123.484848,49.9454545 L81.276692,49.9454545 C83.3765121,42.5876328 84.5871212,33.9316807 84.5871212,24.6681818 C84.5871212,16.1622729 83.5664279,8.16860129 81.7738584,1.22179665 Z M42.8255807,49.9454545 L0,49.9454545 C-3.04577492e-15,25.074815 18.4145016,4.50511268 42.3529715,1.12688099 C40.5451698,8.09574903 39.5151515,16.123507 39.5151515,24.6681818 C39.5151515,33.9316807 40.7257606,42.5876328 42.8255807,49.9454545 Z" id="Saco" fill="#3A4C5A"></path>
                    <path d="M91.9962121,35.3272727 L96.9824183,31.6380919 C98.4168655,30.5767771 100.380808,30.5939404 101.796488,31.680163 L104.962121,34.1090909 L91.9962121,35.3272727 Z" id="Pocket-hanky" fill="#E6E6E6"></path>
                    <path d="M42.6022727,0 C40.1325758,11.7757576 41.1616162,28.4242424 45.6893939,49.9454545 L35.8106061,49.9454545 L27.1666667,28.0181818 L30.8712121,22.5363636 L27.1666667,18.8818182 L38.8977273,0.609090909 C40.1496531,0.224899897 41.3845016,0.021869594 42.6022727,0 Z" id="Wing" fill="#2F4351"></path>
                    <path d="M93.2310606,0 C90.7613636,11.7757576 91.790404,28.4242424 96.3181818,49.9454545 L86.4393939,49.9454545 L77.7954545,28.0181818 L81.5,22.5363636 L77.7954545,18.8818182 L89.5265152,0.609090909 C90.778441,0.224899897 92.0132895,0.021869594 93.2310606,0 Z" id="Wing" fill="#2F4351" transform="translate(87.056818, 24.972727) scale(-1, 1) translate(-87.056818, -24.972727) "></path>
                </g>
            </g>
            <g id="Face" transform="translate(46.924242, 50.078571)">
                <g id="Mouth/Smile" transform="translate(1.234848, 31.757143)">
                    <mask id="mask-15" fill="white">
                        <use xlink:href="#path-14"></use>
                    </mask>
                    <use id="Mouth" fill-opacity="0.699999988" fill="#000000" fill-rule="evenodd" xlink:href="#path-14"></use>
                    <rect id="Teeth" fill="#FFFFFF" fill-rule="evenodd" mask="url(#mask-15)" x="24.1944444" y="1.22727273" width="19.2314815" height="9.81818182" rx="4.90909091"></rect>
                    <g id="Tongue" stroke-width="1" fill-rule="evenodd" mask="url(#mask-15)" fill="#FF4F6D">
                        <g transform="translate(23.574074, 14.727273)">
                            <ellipse cx="6.82407407" cy="6.75" rx="6.82407407" ry="6.75"></ellipse>
                            <ellipse cx="13.0277778" cy="6.75" rx="6.82407407" ry="6.75"></ellipse>
                        </g>
                    </g>
                </g>
                <g id="Nose/Default" transform="translate(17.287879, 24.428571)" fill="#000000" fill-opacity="0.16">
                    <path d="M10,5 C10,7.76142375 13.3578644,10 17.5,10 C21.6421356,10 25,7.76142375 25,5" id="Nose"></path>
                </g>
                <g id="Eyes/Happy-ðŸ˜" transform="translate(0.000000, 4.885714)" fill="#000000" fill-opacity="0.599999964">
                    <path d="M9.95581743,13.7744866 C11.0933986,11.4434026 13.6548674,9.81818182 16.6324379,9.81818182 C19.5994972,9.81818182 22.1533875,11.4319485 23.2969578,13.7498262 C23.636665,14.4383713 23.1532603,15.0018638 22.6656418,14.5843095 C21.1555887,13.2912307 19.0111735,12.4836883 16.6324379,12.4836883 C14.3281002,12.4836883 12.2436547,13.2415068 10.7427697,14.4644162 C10.1940063,14.9115443 9.62309805,14.4562814 9.95581743,13.7744866 Z" id="Squint"></path>
                    <path d="M45.6879603,13.7744866 C46.8255414,11.4434026 49.3870103,9.81818182 52.3645807,9.81818182 C55.33164,9.81818182 57.8855303,11.4319485 59.0291006,13.7498262 C59.3688078,14.4383713 58.8854032,15.0018638 58.3977847,14.5843095 C56.8877316,13.2912307 54.7433163,12.4836883 52.3645807,12.4836883 C50.060243,12.4836883 47.9757976,13.2415068 46.4749125,14.4644162 C45.9261492,14.9115443 45.3552409,14.4562814 45.6879603,13.7744866 Z" id="Squint"></path>
                </g>
                <g id="Eyebrow/Outline/Default" fill="#000000" fill-opacity="0.599999964">
                    <g id="I-Browse" transform="translate(7.392857, 3.750000)">
                        <path d="M2.23649045,6.97411046 C4.64835442,3.53116671 11.2605041,1.60052326 16.9561504,3.01948779 C17.617009,3.18412844 18.2843017,2.77410008 18.4465903,2.10366382 C18.608879,1.43322756 18.2047082,0.756263974 17.5438496,0.591623325 C10.929331,-1.05626118 3.2726328,1.17937395 0.227795269,5.52588954 C-0.166406823,6.08861432 -0.036309027,6.86898818 0.51837683,7.26890335 C1.07306269,7.66881852 1.84228835,7.53683524 2.23649045,6.97411046 Z" id="Eyebrow" fill-rule="nonzero"></path>
                        <path d="M37.9686333,6.97411046 C40.3804973,3.53116671 46.992647,1.60052326 52.6882933,3.01948779 C53.3491519,3.18412844 54.0164446,2.77410008 54.1787332,2.10366382 C54.3410218,1.43322756 53.936851,0.756263974 53.2759924,0.591623325 C46.6614738,-1.05626118 39.0047757,1.17937395 35.9599381,5.52588954 C35.565736,6.08861432 35.6958338,6.86898818 36.2505197,7.26890335 C36.8052055,7.66881852 37.5744312,7.53683524 37.9686333,6.97411046 Z" id="Eyebrow" fill-rule="nonzero" transform="translate(44.973309, 3.774499) scale(-1, 1) translate(-44.973309, -3.774499) "></path>
                    </g>
                </g>
            </g>
            <g id="Top">
                <mask id="mask-17" fill="white">
                    <use xlink:href="#path-16"></use>
                </mask>
                <g id="Mask"></g>
                <g id="Top/Short-Hair/Dreads-01" mask="url(#mask-17)">
                    <g transform="translate(-0.617424, 0.000000)">
                        <g id="Facial-Hair/-Blank" transform="translate(30.210526, 43.971429)"></g>
                        <g id="Hair" stroke-width="1" fill-rule="evenodd" transform="translate(0.616541, 0.000000)">
                            <mask id="mask-19" fill="white">
                                <use xlink:href="#path-18"></use>
                            </mask>
                            <use id="Dreads-With-Cut" fill="#2E3257" xlink:href="#path-18"></use>
                            <g id="Color/Hair/Black" mask="url(#mask-19)" fill="#2C1B18">
                                <rect id="Color" x="0" y="0" width="163" height="171"></rect>
                            </g>
                        </g>
                        <g id="Top/_Resources/Blank" transform="translate(38.225564, 51.910714)"></g>
                    </g>
                </g>
            </g>
        </g>
        <g id="Avataaar/Default" transform="translate(301.000000, 27.000000)">
            <g id="Body" stroke-width="1" fill-rule="evenodd" transform="translate(19.757576, 21.985714)">
                <mask id="mask-21" fill="white">
                    <use xlink:href="#path-20"></use>
                </mask>
                <use fill="#D0C6AC" xlink:href="#path-20"></use>
                <g id="Skin/ðŸ‘¶ðŸ»-05-Pale" mask="url(#mask-21)" fill="#FFDBB4">
                    <g transform="translate(-19.757576, 0.000000)" id="Color">
                        <rect x="0" y="0" width="163" height="149"></rect>
                    </g>
                </g>
                <path d="M96.3181818,57.0313853 L96.3181818,61.9170996 C96.3181818,81.0127632 80.8380879,96.4928571 61.7424242,96.4928571 C42.6467606,96.4928571 27.1666667,81.0127632 27.1666667,61.9170996 L27.1666667,57.0313853 C27.1666667,76.1270489 42.6467606,91.6071429 61.7424242,91.6071429 C80.8380879,91.6071429 96.3181818,76.1270489 96.3181818,57.0313853 Z" id="Neck-Shadow" fill-opacity="0.100000001" fill="#000000" mask="url(#mask-21)"></path>
            </g>
            <g id="Clothing/Hoodie" transform="translate(0.000000, 103.821429)">
                <mask id="mask-23" fill="white">
                    <use xlink:href="#path-22"></use>
                </mask>
                <use id="Hoodie" fill="#B7C1DB" fill-rule="evenodd" xlink:href="#path-22"></use>
                <g id="Color/Palette/Red" mask="url(#mask-23)" fill="#FF5C5C" fill-rule="evenodd">
                    <rect id="ðŸ–Color" x="0" y="0" width="163" height="67"></rect>
                </g>
                <path d="M62.9772727,37.604696 L62.9772727,67 L58.655303,67 L58.655303,35.4187963 C60.0159543,36.2165806 61.4625887,36.9479344 62.9772727,37.604696 Z M104.344697,35.4187963 L104.344697,59.9662879 C104.344697,61.1597669 103.377191,62.1272727 102.183712,62.1272727 C100.990233,62.1272727 100.022727,61.1597669 100.022727,59.9662879 L100.022727,37.604696 C101.537411,36.9479344 102.984046,36.2165806 104.344697,35.4187963 Z" id="Straps" fill="#F4F4F4" fill-rule="evenodd" mask="url(#mask-23)"></path>
                <path d="M81.5,41.4181818 C98.8982713,41.4181818 116.075758,31.349285 116.075758,18.9286713 C116.075758,13.2209605 112.448341,9.79080731 106.839009,7.75028816 C116.131752,9.48426307 122.558712,12.938848 122.558712,19.6783217 C122.558712,31.6849149 102.160447,41.4181818 81.5,41.4181818 Z M81.4958731,41.4181817 C60.8368365,41.4168857 40.4412879,31.6841155 40.4412879,19.6783217 C40.4412879,12.938848 46.8682479,9.48426307 56.1609912,7.75028816 Z" id="Shadow" fill-opacity="0.16" fill="#000000" fill-rule="evenodd" mask="url(#mask-23)"></path>
            </g>
            <g id="Face" stroke-width="1" fill-rule="evenodd" transform="translate(46.924242, 50.078571)" fill="#000000">
                <g id="Mouth/Default" transform="translate(1.234848, 31.757143)" fill-opacity="0.699999988">
                    <path d="M24.8148148,9.20454545 C24.8148148,13.9491735 28.7033047,17.7954545 33.5,17.7954545 C38.2966953,17.7954545 42.1851852,13.9491735 42.1851852,9.20454545" id="Mouth"></path>
                </g>
                <g id="Nose/Default" transform="translate(17.287879, 24.428571)" fill-opacity="0.16">
                    <path d="M10,5 C10,7.76142375 13.3578644,10 17.5,10 C21.6421356,10 25,7.76142375 25,5" id="Nose"></path>
                </g>
                <g id="Eyes/Wink-ðŸ˜‰" transform="translate(0.000000, 4.885714)" fill-opacity="0.599999964">
                    <ellipse id="Eye" cx="18.4821429" cy="13.5" rx="3.69642857" ry="3.68181818"></ellipse>
                    <path d="M43.3790665,14.8530001 C44.5166477,12.521916 47.0781165,10.8966952 50.055687,10.8966952 C53.0227463,10.8966952 55.5766366,12.5104619 56.7202069,14.8283396 C57.0599141,15.5168847 56.5765094,16.0803772 56.0888909,15.6628229 C54.5788378,14.3697441 52.4344226,13.5622017 50.055687,13.5622017 C47.7513493,13.5622017 45.6669039,14.3200202 44.1660188,15.5429296 C43.6172554,15.9900577 43.0463472,15.5347948 43.3790665,14.8530001 Z" id="Winky-Wink" transform="translate(50.057178, 13.351241) rotate(-4.000000) translate(-50.057178, -13.351241) "></path>
                </g>
                <g id="Eyebrow/Outline/Default" fill-opacity="0.599999964">
                    <g id="I-Browse" transform="translate(7.392857, 3.750000)">
                        <path d="M2.23649045,6.97411046 C4.64835442,3.53116671 11.2605041,1.60052326 16.9561504,3.01948779 C17.617009,3.18412844 18.2843017,2.77410008 18.4465903,2.10366382 C18.608879,1.43322756 18.2047082,0.756263974 17.5438496,0.591623325 C10.929331,-1.05626118 3.2726328,1.17937395 0.227795269,5.52588954 C-0.166406823,6.08861432 -0.036309027,6.86898818 0.51837683,7.26890335 C1.07306269,7.66881852 1.84228835,7.53683524 2.23649045,6.97411046 Z" id="Eyebrow" fill-rule="nonzero"></path>
                        <path d="M37.9686333,6.97411046 C40.3804973,3.53116671 46.992647,1.60052326 52.6882933,3.01948779 C53.3491519,3.18412844 54.0164446,2.77410008 54.1787332,2.10366382 C54.3410218,1.43322756 53.936851,0.756263974 53.2759924,0.591623325 C46.6614738,-1.05626118 39.0047757,1.17937395 35.9599381,5.52588954 C35.565736,6.08861432 35.6958338,6.86898818 36.2505197,7.26890335 C36.8052055,7.66881852 37.5744312,7.53683524 37.9686333,6.97411046 Z" id="Eyebrow" fill-rule="nonzero" transform="translate(44.973309, 3.774499) scale(-1, 1) translate(-44.973309, -3.774499) "></path>
                    </g>
                </g>
            </g>
            <g id="Top" stroke-width="1" fill-rule="evenodd">
                <mask id="mask-25" fill="white">
                    <use xlink:href="#path-24"></use>
                </mask>
                <g id="Mask"></g>
                <g id="Top/Long-Hair/Straight" mask="url(#mask-25)">
                    <g transform="translate(-0.617424, 0.000000)">
                        <g id="Hair" stroke-width="1" fill="none" fill-rule="evenodd" transform="translate(24.661654, 9.160714)">
                            <mask id="mask-27" fill="white">
                                <use xlink:href="#path-26"></use>
                            </mask>
                            <use fill="#272C2E" xlink:href="#path-26"></use>
                            <g id="Color/Hair/Brown-Dark" mask="url(#mask-27)" fill="#4A312C">
                                <g transform="translate(-24.045113, -9.160714)" id="Color">
                                    <rect x="0" y="0" width="163" height="171"></rect>
                                </g>
                            </g>
                        </g>
                        <path d="M41.3082707,69.0107143 C52.2966657,46.255382 84.7962349,46.2147399 95.2122863,34.674594 C101.857284,40.6492072 112.760313,46.6732255 116.503515,59.7698231 C112.760313,48.4092156 101.857284,44.3978852 95.2122863,39.2129656 C84.7962349,49.2277944 52.2966657,49.2630647 41.3082707,69.0107143 Z" id="Shadow" fill-opacity="0.16" fill="#000000" fill-rule="evenodd"></path>
                        <g id="Facial-Hair/-Blank" fill="none" transform="translate(30.210526, 43.971429)"></g>
                        <g id="Top/_Resources/Blank" fill="none" transform="translate(38.225564, 51.910714)"></g>
                    </g>
                </g>
            </g>
        </g>
    </g>
</svg>