<?xml version="1.0" encoding="UTF-8"?>
<svg width="442px" height="261px" viewBox="0 0 442 261" version="1.1" xmlns="http://www.w3.org/2000/svg" xmlns:xlink="http://www.w3.org/1999/xlink">
    <!-- Generator: Sketch 48.2 (47327) - http://www.bohemiancoding.com/sketch -->
    <title>Slice 8</title>
    <desc>Created with Sketch.</desc>
    <defs>
        <path d="M48.6515152,91.3716205 C37.7351527,86.1858223 29.8554797,75.6453393 28.4067808,63.1444563 C24.6562158,62.6367466 21.7651515,59.4222292 21.7651515,55.5324675 L21.7651515,46.8746753 C21.7651515,43.0683392 24.5335337,39.9085933 28.1666667,39.2990691 L28.1666667,35.8484848 C28.1666667,16.0499134 44.21658,3.63693858e-15 64.0151515,0 C83.813723,-3.63693858e-15 99.8636364,16.0499134 99.8636364,35.8484848 L99.8636364,39.2990691 C103.496769,39.9085933 106.265152,43.0683392 106.265152,46.8746753 L106.265152,55.5324675 C106.265152,59.4222292 103.374087,62.6367466 99.6235222,63.1444563 C98.1748234,75.6453393 90.2951503,86.1858223 79.3787879,91.3716205 L79.3787879,103.101777 C106.472153,104.431652 128.030303,126.819667 128.030303,154.242857 L0,154.242857 C-3.35837221e-15,126.819667 21.5581497,104.431652 48.6514837,103.101779 L48.6515152,91.3716205 Z" id="path-1"></path>
        <path d="M106.156885,19.2984203 C130.239386,23.617726 148.515152,44.6745961 148.515152,70 L20.4848485,70 C20.4848485,44.4441652 39.0947026,23.2348946 63.5019142,19.1846852 C63.4180421,19.6763759 63.375,20.1758902 63.375,20.6818182 C63.375,28.2380777 72.9762875,34.3636364 84.8200758,34.3636364 C96.6638641,34.3636364 106.265152,28.2380777 106.265152,20.6818182 C106.265152,20.2148523 106.228484,19.7533503 106.156885,19.2984203 Z" id="path-3"></path>
        <rect id="path-5" x="0" y="0" width="169" height="177"></rect>
        <path d="M13.4214012,97.9822203 C13.4211688,97.8942118 13.4210526,97.8061991 13.4210526,97.7181825 L13.4210526,57.3545937 C13.4210526,54.811721 13.645846,52.3213516 14.0766449,49.9022735 C11.540371,31.2305267 20.8319688,16.3796972 31.9548872,8.21785714 C44.6759004,-1.1123294 66.1095099,-3.80441431 73.5263221,7.28361615 C79.0553318,4.85551165 87.2490164,7.06869187 93.3082707,12.6428571 C99.7789228,18.9426505 104.867135,33.2934397 100.806976,44.3423157 C101.260789,46.6187733 101.498613,48.9716138 101.498613,51.3780429 L101.498613,58.7898884 C100.935354,55.611132 98.4140193,53.1088157 95.2255639,52.5738942 L95.2255639,52.4678571 C91.3678745,38.8541605 80.0339012,32.6059584 73.1317529,26.4091036 C62.3346264,38.3541668 28.6460486,38.396235 17.2556391,61.95 L17.2556391,68.1879699 C17.2556391,72.0458311 20.1041668,75.238383 23.812692,75.7770954 C25.0426771,88.5607989 32.9977718,99.3792775 44.0977444,104.652299 L44.0977444,104.935714 C45.970538,132.65841 39.8531524,167.389805 0,156.771429 C8.93321113,151.600491 13.5471411,117.726915 13.4210526,97.9821429 Z M74.7744361,104.652299 C85.8744086,99.3792775 93.8295033,88.5607989 95.0594884,75.7770954 C98.7680136,75.238383 101.616541,72.0458311 101.616541,68.1879699 L101.616541,66.2264627 C102.311758,80.529124 106.072054,94.5359193 112.664762,107.290045 L122.647803,126.603043 C127.335195,135.671183 126.591763,146.112355 121.600217,154.212847 C115.961068,133.198494 97.2853228,117.520644 74.7744587,116.380771 L74.7744361,104.652299 Z M58.1206393,167.517857 L97.7393084,167.517857 L58.1206393,167.517857 Z" id="path-7"></path>
        <path d="M137,120 L309,120 L309,126.322015 C309,131.671128 308.443046,133.610845 307.397204,135.566401 C306.351361,137.521956 304.81663,139.056688 302.861074,140.10253 C300.905519,141.148373 298.965801,141.705327 293.616689,141.705327 L230.172598,141.705327 C228.219118,141.705327 226.357584,142.535101 225.051708,143.987951 L225.051708,143.987951 C223.928591,145.237473 222.005188,145.339945 220.755666,144.216828 C220.748974,144.210813 220.742309,144.204769 220.735671,144.198695 L220.505353,143.987951 C218.900667,142.519649 216.804408,141.705327 214.629338,141.705327 L152.383311,141.705327 C147.034199,141.705327 145.094481,141.148373 143.138926,140.10253 C141.18337,139.056688 139.648639,137.521956 138.602796,135.566401 C137.556954,133.610845 137,131.671128 137,126.322015 L137,120 Z" id="path-9"></path>
        <filter x="-0.3%" y="-2.2%" width="100.6%" height="104.4%" filterUnits="objectBoundingBox" id="filter-10">
            <feOffset dx="0" dy="-1.1" in="SourceAlpha" result="shadowOffsetInner1"></feOffset>
            <feComposite in="shadowOffsetInner1" in2="SourceAlpha" operator="arithmetic" k2="-1" k3="1" result="shadowInnerInner1"></feComposite>
            <feColorMatrix values="0 0 0 0 0.964705882   0 0 0 0 0.937254902   0 0 0 0 0.88627451  0 0 0 0.5 0" type="matrix" in="shadowInnerInner1"></feColorMatrix>
        </filter>
        <path d="M52,198 L309,198 L309,205.100155 C309,210.449267 308.443046,212.388985 307.397204,214.34454 C306.351361,216.300096 304.81663,217.834827 302.861074,218.88067 C300.905519,219.926512 298.965801,220.483466 293.616689,220.483466 L190.502799,220.483466 C187.992676,220.483466 185.553249,221.314918 183.565633,222.847923 L183.565633,222.847923 C181.725243,224.267377 179.193371,224.383542 177.230734,223.138576 L176.772533,222.847923 C175.791804,222.225814 174.947404,221.755727 174.128372,221.405437 C173.309341,221.055147 172.515678,220.824654 171.636422,220.681734 C170.757167,220.538814 169.79232,220.483466 168.630921,220.483466 L67.3833112,220.483466 C62.0341988,220.483466 60.0944813,219.926512 58.1389258,218.88067 C56.1833702,217.834827 54.6486388,216.300096 53.6027962,214.34454 C52.5569537,212.388985 52,210.449267 52,205.100155 L52,198 Z" id="path-11"></path>
        <filter x="-0.2%" y="-2.1%" width="100.4%" height="104.2%" filterUnits="objectBoundingBox" id="filter-12">
            <feOffset dx="0" dy="-1.1" in="SourceAlpha" result="shadowOffsetInner1"></feOffset>
            <feComposite in="shadowOffsetInner1" in2="SourceAlpha" operator="arithmetic" k2="-1" k3="1" result="shadowInnerInner1"></feComposite>
            <feColorMatrix values="0 0 0 0 0.964705882   0 0 0 0 0.937254902   0 0 0 0 0.88627451  0 0 0 0.5 0" type="matrix" in="shadowInnerInner1"></feColorMatrix>
        </filter>
        <path d="M48.3636364,91.3920336 C37.456616,86.2106733 29.5991343,75.6519707 28.2171938,63.141928 C24.4992783,62.6278716 21.6363636,59.4372316 21.6363636,55.5779221 L21.6363636,46.8292208 C21.6363636,43.0454073 24.3883648,39.9043582 28,39.2984406 L28,35.6363636 C28,15.9549435 43.9549435,3.61541823e-15 63.6363636,0 C83.3177838,-3.61541823e-15 99.2727273,15.9549435 99.2727273,35.6363636 L99.2727273,39.2984406 C102.884362,39.9043582 105.636364,43.0454073 105.636364,46.8292208 L105.636364,55.5779221 C105.636364,59.4372316 102.773449,62.6278716 99.0555335,63.141928 C97.6735929,75.6519707 89.8161113,86.2106733 78.9090909,91.3920336 L78.9090909,103.116711 C105.867111,104.590402 127.272727,126.916855 127.272727,154.242857 L0,154.242857 C-3.34647012e-15,126.916855 21.4056161,104.590402 48.3636364,103.116711 L48.3636364,91.3920336 Z" id="path-13"></path>
        <path d="M115.793181,22.3759625 C134.484679,30.1043212 147.636364,48.5162904 147.636364,70 L20.3636364,70 C20.3636364,48.2653627 33.8243355,29.6746402 52.8640185,22.1095476 C52.8335908,22.4475023 52.8181818,22.7878329 52.8181818,23.1303069 C52.8181818,33.4911791 66.9212122,41.8903255 84.3181818,41.8903255 C101.715151,41.8903255 115.818182,33.4911791 115.818182,23.1303069 C115.818182,22.8776612 115.809796,22.626182 115.793181,22.3759625 Z" id="path-15"></path>
        <rect id="path-17" x="0" y="0" width="168" height="177"></rect>
        <path d="M57.7587945,34.9962627 L111.23866,34.9962627 C122.832046,28.3413665 125.00879,16.5311904 116.806704,6.27465056 C114.764816,3.72131155 111.23866,13.7020513 100.401627,14.3183441 C89.5645934,14.9346369 90.6048803,10.3354511 79.0726796,12.0574453 C67.5404789,13.7794396 68.814497,22.9963647 61.2893106,25.2078494 C56.2725197,26.6821725 55.095681,29.944977 57.7587945,34.9962627 Z" id="path-19"></path>
        <filter x="-1.3%" y="-4.2%" width="102.7%" height="117.0%" filterUnits="objectBoundingBox" id="filter-21">
            <feOffset dx="0" dy="2" in="SourceAlpha" result="shadowOffsetOuter1"></feOffset>
            <feColorMatrix values="0 0 0 0 0   0 0 0 0 0   0 0 0 0 0  0 0 0 0.1 0" type="matrix" in="shadowOffsetOuter1" result="shadowMatrixOuter1"></feColorMatrix>
            <feMerge>
                <feMergeNode in="shadowMatrixOuter1"></feMergeNode>
                <feMergeNode in="SourceGraphic"></feMergeNode>
            </feMerge>
        </filter>
    </defs>
    <g id="-" stroke="none" stroke-width="1" fill="none" fill-rule="evenodd">
        <g id="Group-10" transform="translate(-84.000000, -166.000000)" fill="#EEEEEE" opacity="0.388700181">
            <g id="Group-8">
                <rect id="Rectangle-2" x="0" y="0" width="1439" height="562"></rect>
            </g>
        </g>
        <g id="Avataaar/Default" transform="translate(-13.000000, 15.000000)">
            <g id="Body" stroke-width="1" fill-rule="evenodd" transform="translate(20.484848, 22.757143)">
                <mask id="mask-2" fill="white">
                    <use xlink:href="#path-1"></use>
                </mask>
                <use fill="#D0C6AC" xlink:href="#path-1"></use>
                <g id="Skin/👶🏼-04-Light" mask="url(#mask-2)" fill="#EDB98A">
                    <g transform="translate(-20.484848, 0.000000)" id="Color">
                        <rect x="0" y="0" width="169" height="154"></rect>
                    </g>
                </g>
                <path d="M99.8636364,58.9729437 L99.8636364,64.0300866 C99.8636364,83.8286581 83.813723,99.8785714 64.0151515,99.8785714 C44.21658,99.8785714 28.1666667,83.8286581 28.1666667,64.0300866 L28.1666667,58.9729437 C28.1666667,78.7715152 44.21658,94.8214286 64.0151515,94.8214286 C83.813723,94.8214286 99.8636364,78.7715152 99.8636364,58.9729437 Z" id="Neck-Shadow" fill-opacity="0.100000001" fill="#000000" mask="url(#mask-2)"></path>
            </g>
            <g id="Clothing/Graphic-Shirt" transform="translate(0.000000, 107.464286)">
                <mask id="mask-4" fill="white">
                    <use xlink:href="#path-3"></use>
                </mask>
                <use id="Clothes" fill="#E6E6E6" fill-rule="evenodd" xlink:href="#path-3"></use>
                <g id="Color/Palette/Blue-03" mask="url(#mask-4)" fill="#25557C" fill-rule="evenodd">
                    <rect id="🖍Color" x="0" y="0" width="169" height="70"></rect>
                </g>
                <g id="Clothing/Graphic/Bat" mask="url(#mask-4)" fill="#FFFFFF" fill-rule="evenodd">
                    <g transform="translate(49.291667, 36.909091)" id="Batman!">
                        <path d="M55.7996985,8.52930766 C54.9127791,4.43661895 51.848086,2.07036092 47.8446424,1.15619744 C46.2373001,0.789254712 40.9004371,-0.362957056 41.7317611,2.68841556 C42.108767,4.07112774 41.8991263,5.21143709 40.7432065,6.35813311 C39.6168217,7.47492793 37.414146,7.75768285 36.3193232,6.35087554 C35.3811518,5.14495775 36.5909296,3.34653198 35.8600825,2.17196689 C35.5763146,1.71561091 35.0866703,1.48249777 34.5698073,1.70603092 C33.8435932,2.02013854 34.2301546,2.69538282 33.8870271,3.18105939 C33.3469994,3.94658784 33.0945039,3.70708804 32.6083343,2.94388201 C32.3028495,2.4643018 32.6031222,1.94175678 31.8149424,1.73680301 C30.9028314,1.49962564 30.604296,2.26370258 30.5217717,2.96013897 C30.4699406,3.39733496 30.7267795,4.10044832 30.7357558,4.54374068 C30.7531294,5.41174602 30.6781336,6.65830619 30.2744882,7.42557646 C29.5586983,8.78564502 28.5533492,8.35048114 27.4851658,7.48654005 C26.2250048,6.46757726 25.8552379,5.33278366 26.0990466,3.78488919 C26.3912117,1.92898346 26.2852331,0.152330394 24.0121945,1.31325125 C20.8171998,2.94504322 17.8524046,5.85387716 16.0012535,8.89828251 C14.4454527,11.4561404 13.2209074,14.5574451 14.5992086,17.4717948 C16.0058865,20.4468177 18.3295979,23.0020629 21.5778715,23.761495 C22.418751,23.95803 24.8180373,24.9137067 25.6157725,24.1121808 C26.8545062,22.8667818 23.9942418,21.7052803 23.4296016,20.9464288 C22.6289708,19.870857 21.9421367,17.8189969 22.8209485,16.6055312 C23.9403838,15.0608301 25.1110711,15.9218682 26.0312898,17.0148582 C26.7537396,17.8727029 27.7805161,20.0859714 28.8985036,18.3017704 C29.6681516,17.0729187 29.5992365,15.0553144 31.6988293,15.9366736 C34.6989507,17.1954265 34.7910305,23.0078689 35.325846,25.6673328 C35.5595202,26.831447 36.6210437,28.25335 37.5346025,26.637815 C38.036698,25.7494885 37.7656707,23.8239101 37.67417,22.9065533 C37.4853775,21.0071021 36.9870464,19.139294 37.6043863,17.2575513 C37.9614126,16.1689158 38.8775775,14.6105705 40.2324243,15.4478037 C41.3298531,16.125951 40.8726394,19.148874 42.3656059,19.1433582 C43.6807831,19.1387134 43.3220195,16.7306517 44.0221733,15.9366736 C45.0909358,14.7246595 47.1505694,15.3009105 47.7826768,16.7312323 C48.6336909,18.6562301 46.3812109,19.9930745 46.482267,21.6852494 C46.5807171,23.3344596 48.7057911,22.6908583 49.5947374,22.272532 C51.421855,21.4132357 52.8516977,19.8206346 53.8425688,18.0910106 C55.3746258,15.4161607 56.4680008,11.586196 55.7996985,8.52930766"></path>
                    </g>
                </g>
            </g>
            <g id="Face" stroke-width="1" fill-rule="evenodd" transform="translate(48.651515, 51.835714)" fill="#000000">
                <g id="Mouth/Twinkle" transform="translate(1.280303, 32.871429)" fill-opacity="0.599999964" fill-rule="nonzero">
                    <path d="M25.5555556,10.1818182 C25.5555556,13.6002128 29.489932,15.9090909 34.5,15.9090909 C39.510068,15.9090909 43.4444444,13.6002128 43.4444444,10.1818182 C43.4444444,9.47891032 42.8376923,8.90909091 42.1666667,8.90909091 C41.3407589,8.90909091 40.9720924,9.48511169 40.8888889,10.1818182 C40.0951178,12.0513892 38.1309714,13.1831095 34.5,13.3636364 C30.8690286,13.1831095 28.9048822,12.0513892 28.1111111,10.1818182 C28.0279076,9.48511169 27.6592411,8.90909091 26.8333333,8.90909091 C26.1623077,8.90909091 25.5555556,9.47891032 25.5555556,10.1818182 Z" id="Mouth"></path>
                </g>
                <g id="Nose/Default" transform="translate(17.924242, 25.285714)" fill-opacity="0.16">
                    <path d="M10.2857143,5 C10.2857143,7.76142375 13.7395176,10 18,10 C22.2604824,10 25.7142857,7.76142375 25.7142857,5" id="Nose"></path>
                </g>
                <g id="Eyes/Default-😀" transform="translate(0.000000, 5.057143)" fill-opacity="0.599999964">
                    <ellipse id="Eye" cx="19.2857143" cy="14" rx="3.85714286" ry="3.81818182"></ellipse>
                    <ellipse id="Eye" cx="52.7142857" cy="14" rx="3.85714286" ry="3.81818182"></ellipse>
                </g>
                <g id="Eyebrow/Outline/Default" fill-opacity="0.599999964">
                    <g id="I-Browse" transform="translate(7.714286, 3.750000)">
                        <path d="M2.33372916,6.97411046 C4.85045679,3.53116671 11.7500912,1.60052326 17.6933744,3.01948779 C18.3829659,3.18412844 19.0792713,2.77410008 19.248616,2.10366382 C19.4179607,1.43322756 18.9962172,0.756263974 18.3066256,0.591623325 C11.4045193,-1.05626118 3.41492118,1.17937395 0.237699411,5.52588954 C-0.173641902,6.08861432 -0.0378876803,6.86898818 0.540914953,7.26890335 C1.11971759,7.66881852 1.92238785,7.53683524 2.33372916,6.97411046 Z" id="Eyebrow" fill-rule="nonzero"></path>
                        <path d="M39.6194434,6.97411046 C42.1361711,3.53116671 49.0358055,1.60052326 54.9790886,3.01948779 C55.6686802,3.18412844 56.3649856,2.77410008 56.5343303,2.10366382 C56.703675,1.43322756 56.2819315,0.756263974 55.5923399,0.591623325 C48.6902335,-1.05626118 40.7006355,1.17937395 37.5234137,5.52588954 C37.1120724,6.08861432 37.2478266,6.86898818 37.8266292,7.26890335 C38.4054319,7.66881852 39.2081021,7.53683524 39.6194434,6.97411046 Z" id="Eyebrow" fill-rule="nonzero" transform="translate(46.928670, 3.774499) scale(-1, 1) translate(-46.928670, -3.774499) "></path>
                    </g>
                </g>
            </g>
            <g id="Top" stroke-width="1" fill-rule="evenodd">
                <mask id="mask-6" fill="white">
                    <use xlink:href="#path-5"></use>
                </mask>
                <g id="Mask"></g>
                <g id="Top/Long-Hair/Straight" mask="url(#mask-6)">
                    <g transform="translate(-0.640152, 0.000000)">
                        <g id="Hair" stroke-width="1" fill="none" fill-rule="evenodd" transform="translate(25.563910, 9.482143)">
                            <mask id="mask-8" fill="white">
                                <use xlink:href="#path-7"></use>
                            </mask>
                            <use fill="#272C2E" xlink:href="#path-7"></use>
                            <g id="Color/Hair/Brown-Dark" mask="url(#mask-8)" fill="#4A312C">
                                <g transform="translate(-24.924812, -9.482143)" id="Color">
                                    <rect x="0" y="0" width="169" height="177"></rect>
                                </g>
                            </g>
                        </g>
                        <path d="M42.8195489,71.4321429 C54.2099584,47.8783779 87.8985362,47.8363097 98.6956627,35.8912464 C105.58377,42.0754952 116.88569,48.3108826 120.765838,61.8670098 C116.88569,50.1077846 105.58377,45.9557058 98.6956627,40.5888591 C87.8985362,50.9550855 54.2099584,50.9915933 42.8195489,71.4321429 Z" id="Shadow" fill-opacity="0.16" fill="#000000" fill-rule="evenodd"></path>
                        <g id="Facial-Hair/-Blank" fill="none" transform="translate(31.315789, 45.514286)"></g>
                        <g id="Top/_Resources/Blank" fill="none" transform="translate(39.624060, 53.732143)"></g>
                    </g>
                </g>
            </g>
        </g>
        <g id="Group" transform="translate(86.000000, 15.000000)">
            <text id="递交申请" font-family="PingFangSC-Light, PingFang SC" font-size="6" font-weight="300" fill="#A2B6BD">
                <tspan x="124" y="101">递交申请</tspan>
            </text>
            <text id="2016-08" font-family="PingFangSC-Light, PingFang SC" font-size="6" font-weight="300" fill="#F2BE69">
                <tspan x="124" y="111">2016-08</tspan>
            </text>
            <text id="2016-08" font-family="PingFangSC-Light, PingFang SC" font-size="6" font-weight="300" fill="#F2BE69">
                <tspan x="124" y="111">2016-08</tspan>
            </text>
            <text id="2017-05" font-family="PingFangSC-Light, PingFang SC" font-size="6" font-weight="300" fill="#17A2D3">
                <tspan x="210" y="187">2017-05</tspan>
            </text>
            <text id="2017-08" font-family="PingFangSC-Light, PingFang SC" font-size="6" font-weight="300" fill="#17A2D3">
                <tspan x="125" y="187">2017-08</tspan>
            </text>
            <text id="2017-08" font-family="PingFangSC-Light, PingFang SC" font-size="6" font-weight="300" fill="#17A2D3">
                <tspan x="39" y="187">2017-08</tspan>
            </text>
            <text id="2017-01" font-family="PingFangSC-Light, PingFang SC" font-size="6" font-weight="300" fill="#F2BE69">
                <tspan x="296" y="111">2017-01</tspan>
            </text>
            <text id="2016-11" font-family="PingFangSC-Light, PingFang SC" font-size="6" font-weight="300" fill="#F2BE69">
                <tspan x="210" y="111">2016-11</tspan>
            </text>
            <text id="2017-01" font-family="PingFangSC-Light, PingFang SC" font-size="6" font-weight="300" fill="#17A2D3">
                <tspan x="296" y="187">2017-01</tspan>
            </text>
            <text id="联邦阶段申请" font-family="PingFangSC-Light, PingFang SC" font-size="6" font-weight="300" fill="#A2B6BD">
                <tspan x="290" y="178">联邦阶段申请</tspan>
            </text>
            <text id="补料信" font-family="PingFangSC-Light, PingFang SC" font-size="6" font-weight="300" fill="#A2B6BD">
                <tspan x="213" y="178">补料信</tspan>
            </text>
            <text id="省提名" font-family="PingFangSC-Light, PingFang SC" font-size="6" font-weight="300" fill="#A2B6BD">
                <tspan x="299" y="102">省提名</tspan>
            </text>
            <text id="补料信" font-family="PingFangSC-Light, PingFang SC" font-size="6" font-weight="300" fill="#A2B6BD">
                <tspan x="213" y="102">补料信</tspan>
            </text>
            <text id="省提名阶段" font-family="PingFangSC-Medium, PingFang SC" font-size="6" font-weight="400" fill="#F2BE69">
                <tspan x="209" y="153">省提名阶段</tspan>
            </text>
            <path d="M77,119.5 L133,119.5" id="Line" stroke="#F2BE69" stroke-width="5" stroke-linecap="square"></path>
            <g id="Rectangle-3">
                <use fill="#F6EFE2" fill-rule="evenodd" xlink:href="#path-9"></use>
                <use fill="black" fill-opacity="1" filter="url(#filter-10)" xlink:href="#path-9"></use>
            </g>
            <text id="处理周期共计5个月" font-family="PingFangSC-Medium, PingFang SC" font-size="6" font-weight="400" fill="#F3BD68">
                <tspan x="195" y="134">处理周期共计5个月</tspan>
            </text>
            <text id="联邦阶段" font-family="PingFangSC-Medium, PingFang SC" font-size="6" font-weight="400" fill="#17A2D3">
                <tspan x="168" y="232">联邦阶段</tspan>
            </text>
            <g id="Rectangle-3">
                <use fill="#BFECFB" fill-rule="evenodd" xlink:href="#path-11"></use>
                <use fill="black" fill-opacity="1" filter="url(#filter-12)" xlink:href="#path-11"></use>
            </g>
            <path d="M229,196.5 L308,196.5" id="Line" stroke="#17A2D3" stroke-width="5" stroke-linecap="square"></path>
            <path d="M144,196.5 L223,196.5" id="Line" stroke="#17A2D3" stroke-width="5" stroke-linecap="square"></path>
            <path d="M59,196.5 L138,196.5" id="Line" stroke="#17A2D3" stroke-width="5" stroke-linecap="square"></path>
            <path d="M142,119.5 L221,119.5" id="Line" stroke="#F2BE69" stroke-width="5" stroke-linecap="square"></path>
            <circle id="Oval" stroke="#F2BE69" stroke-width="4" fill="#F2BE69" cx="138.5" cy="119.5" r="4.5"></circle>
            <path d="M228,119.5 L307,119.5" id="Line" stroke="#F2BE69" stroke-width="5" stroke-linecap="square"></path>
            <path d="M228,119.5 L307,119.5" id="Line" stroke="#F2BE69" stroke-width="5" stroke-linecap="square"></path>
            <path d="M314,120 C322.186196,121.064876 328.405855,124.560475 332.658976,130.486798 C339.038658,139.376282 340,152.445421 340,157.5 C340,162.743139 339.918352,171.31708 332.658976,182.771482 C325.3996,194.225884 314,195 314,195" id="Line" stroke="#F2BE69" stroke-width="5" stroke-linecap="square"></path>
            <circle id="Oval" stroke="#F2BE69" stroke-width="4" fill="#F2BE69" cx="224" cy="119" r="2"></circle>
            <circle id="Oval" stroke="#F2BE69" stroke-width="4" fill="#F2BE69" cx="309.5" cy="119.5" r="4.5"></circle>
            <circle id="Oval" stroke="#17A2D3" stroke-width="4" fill="#17A2D3" cx="309.5" cy="195.5" r="4.5"></circle>
            <circle id="Oval" stroke="#17A2D3" stroke-width="4" fill="#17A2D3" cx="226" cy="196" r="2"></circle>
            <circle id="Oval" stroke="#17A2D3" stroke-width="4" fill="#17A2D3" cx="140" cy="196" r="2"></circle>
            <circle id="Oval" stroke="#17A2D3" stroke-width="4" fill="#17A2D3" cx="52.5" cy="195.5" r="4.5"></circle>
            <g id="Avataaar/Default">
                <g id="Body" stroke-width="1" fill-rule="evenodd" transform="translate(20.363636, 22.757143)">
                    <mask id="mask-14" fill="white">
                        <use xlink:href="#path-13"></use>
                    </mask>
                    <use fill="#D0C6AC" xlink:href="#path-13"></use>
                    <g id="Skin/👶🏼-04-Light" mask="url(#mask-14)" fill="#EDB98A">
                        <g transform="translate(-20.363636, 0.000000)" id="Color">
                            <rect x="0" y="0" width="168" height="154"></rect>
                        </g>
                    </g>
                    <path d="M99.2727273,59.1850649 L99.2727273,64.2422078 C99.2727273,83.923628 83.3177838,99.8785714 63.6363636,99.8785714 C43.9549435,99.8785714 28,83.923628 28,64.2422078 L28,59.1850649 C28,78.8664851 43.9549435,94.8214286 63.6363636,94.8214286 C83.3177838,94.8214286 99.2727273,78.8664851 99.2727273,59.1850649 Z" id="Neck-Shadow" fill-opacity="0.100000001" fill="#000000" mask="url(#mask-14)"></path>
                </g>
                <g id="Clothing/Shirt-Scoop-Neck" transform="translate(0.000000, 107.464286)">
                    <mask id="mask-16" fill="white">
                        <use xlink:href="#path-15"></use>
                    </mask>
                    <use id="Clothes" fill="#E6E6E6" fill-rule="evenodd" xlink:href="#path-15"></use>
                    <g id="Color/Palette/Gray-01" mask="url(#mask-16)" fill="#E6E6E6" fill-rule="evenodd">
                        <rect id="🖍Color" x="0" y="0" width="168" height="70"></rect>
                    </g>
                </g>
                <g id="Face" stroke-width="1" fill-rule="evenodd" transform="translate(48.363636, 51.835714)" fill="#000000">
                    <g id="Mouth/Default" transform="translate(1.272727, 32.871429)" fill-opacity="0.699999988">
                        <path d="M25.5555556,9.54545455 C25.5555556,14.4658096 29.5601197,18.4545455 34.5,18.4545455 C39.4398803,18.4545455 43.4444444,14.4658096 43.4444444,9.54545455" id="Mouth"></path>
                    </g>
                    <g id="Nose/Default" transform="translate(17.818182, 25.285714)" fill-opacity="0.16">
                        <path d="M10.2857143,5 C10.2857143,7.76142375 13.7395176,10 18,10 C22.2604824,10 25.7142857,7.76142375 25.7142857,5" id="Nose"></path>
                    </g>
                    <g id="Eyes/Default-😀" transform="translate(0.000000, 5.057143)" fill-opacity="0.599999964">
                        <ellipse id="Eye" cx="19.0178571" cy="14" rx="3.80357143" ry="3.81818182"></ellipse>
                        <ellipse id="Eye" cx="51.9821429" cy="14" rx="3.80357143" ry="3.81818182"></ellipse>
                    </g>
                    <g id="Eyebrow/Outline/Default" fill-opacity="0.599999964">
                        <g id="I-Browse" transform="translate(7.607143, 3.750000)">
                            <path d="M2.30131626,6.97411046 C4.78308933,3.53116671 11.5868955,1.60052326 17.447633,3.01948779 C18.127647,3.18412844 18.8142815,2.77410008 18.9812741,2.10366382 C19.1482668,1.43322756 18.7323809,0.756263974 18.052367,0.591623325 C11.2461232,-1.05626118 3.36749172,1.17937395 0.23439803,5.52588954 C-0.171230209,6.08861432 -0.0373614626,6.86898818 0.533402245,7.26890335 C1.10416595,7.66881852 1.89568802,7.53683524 2.30131626,6.97411046 Z" id="Eyebrow" fill-rule="nonzero"></path>
                            <path d="M39.0691734,6.97411046 C41.5509465,3.53116671 48.3547527,1.60052326 54.2154902,3.01948779 C54.8955041,3.18412844 55.5821386,2.77410008 55.7491313,2.10366382 C55.9161239,1.43322756 55.500238,0.756263974 54.8202241,0.591623325 C48.0139803,-1.05626118 40.1353489,1.17937395 37.0022552,5.52588954 C36.5966269,6.08861432 36.7304957,6.86898818 37.3012594,7.26890335 C37.8720231,7.66881852 38.6635452,7.53683524 39.0691734,6.97411046 Z" id="Eyebrow" fill-rule="nonzero" transform="translate(46.276883, 3.774499) scale(-1, 1) translate(-46.276883, -3.774499) "></path>
                        </g>
                    </g>
                </g>
                <g id="Top" stroke-width="1" fill-rule="evenodd">
                    <mask id="mask-18" fill="white">
                        <use xlink:href="#path-17"></use>
                    </mask>
                    <g id="Mask"></g>
                    <g id="Top/Short-Hair/Frizzle" mask="url(#mask-18)">
                        <g transform="translate(-0.636364, 0.000000)">
                            <g id="Facial-Hair/-Blank" stroke="none" fill="none" transform="translate(31.131579, 45.514286)"></g>
                            <mask id="mask-20" fill="white">
                                <use xlink:href="#path-19"></use>
                            </mask>
                            <use id="Hair-Maks" stroke="none" fill="#252E32" fill-rule="evenodd" xlink:href="#path-19"></use>
                            <g id="Color/Hair/Brown" stroke="none" fill="none" mask="url(#mask-20)" fill-rule="evenodd">
                                <g transform="translate(0.635338, 0.000000)" fill="#724133" id="Color">
                                    <rect x="0" y="0" width="168" height="177"></rect>
                                </g>
                            </g>
                            <g id="Top/_Resources/Prescription-01" stroke="none" fill="none" mask="url(#mask-20)" fill-rule="evenodd" stroke-width="1">
                                <g transform="translate(39.390977, 53.732143)" id="Glasses">
                                    <g filter="url(#filter-21)" transform="translate(5.070423, 5.037037)">
                                        <path d="M29.312835,4.58066049 C30.8159807,4.59472222 31.5265624,4.84300617 31.7826508,6.40029012 C32.0421198,7.97772222 31.7898348,9.75117901 31.4906424,11.3048951 C31.0340361,13.6773395 30.2746454,16.0017222 28.5069597,17.7357222 C27.575787,18.6488951 26.4400816,19.3767469 25.2321138,19.8737346 C24.5906251,20.1377593 23.9132165,20.3283272 23.2360192,20.4729321 C23.0380367,20.5151173 21.3478959,20.7464012 22.3845043,20.6288704 C19.9653992,20.903179 17.3409162,20.8922654 15.3205228,19.3626852 C13.0814402,17.6675123 11.5480795,14.9850802 10.8738403,12.313142 C10.4793544,10.7497716 9.65044798,7.01061111 11.1650035,5.76058642 C12.8999386,4.32838889 29.312835,4.58066049 29.312835,4.58066049 Z M14.081706,0.308833333 C10.633599,0.426783951 8.33239592,1.02870988 6.6316904,4.45095679 C3.5148924,10.7226975 8.84964366,20.1285247 14.8007396,22.691537 C21.7580176,25.6883642 29.5302566,22.3718951 33.2084628,16.3740432 C35.1563823,13.1984012 36.1410124,8.38866049 36.0776242,4.7246358 C35.9969099,0.0481666667 32.7087524,-0.081537037 28.8437623,0.0213024691 L14.081706,0.308833333 Z" id="Frame-Stuff" fill="#D6EAF2"></path>
                                        <path d="M50.501758,4.57902346 C48.9986124,4.59329506 48.2880306,4.84136914 48.0319422,6.39865309 C47.7724732,7.97608519 48.0247582,9.74954198 48.3237393,11.303258 C48.7805569,13.6757025 49.5399476,16.0000852 51.3076333,17.7340852 C52.2388061,18.647258 53.3745114,19.3751099 54.5824793,19.8723074 C55.2239679,20.1361222 55.9013765,20.3266901 56.5785738,20.4712951 C56.7765563,20.5134802 58.4664858,20.7449741 57.4300887,20.6272333 C59.8491939,20.901542 62.4736768,20.8906284 64.4940702,19.3610481 C66.7331528,17.6658753 68.2665135,14.9836531 68.9407527,12.3117148 C69.3352386,10.7481346 70.1639338,7.00918395 68.6495896,5.75894938 C66.9146544,4.32675185 50.501758,4.57902346 50.501758,4.57902346 Z M65.7326757,0.307196296 C69.180994,0.425146914 71.4821971,1.02728272 73.1829026,4.44931975 C76.2994893,10.7210605 70.9649494,20.1268877 65.0138535,22.6901099 C58.0565755,25.6867272 50.2843364,22.370258 46.6059189,16.372616 C44.6582107,13.1967642 43.6735806,8.38702346 43.7367575,4.72299877 C43.8176831,0.0465296296 47.1058406,-0.0831740741 50.9708307,0.0198753086 L65.7326757,0.307196296 Z" id="Frame-Stuff" fill="#D6EAF2"></path>
                                        <path d="M8.36426302,3.1019963 C6.20176939,3.22267531 3.73060348,3.25163827 1.70496648,4.18034198 C-0.440246269,5.16382346 -0.771761091,7.39103333 1.93259739,7.69787284 C3.15060151,7.83618148 4.36999606,7.60762593 5.56932889,7.39502099 C6.55155824,7.22082346 7.88576139,7.27728025 8.81396317,6.90432963 C10.5436403,6.20963827 10.4326056,2.98446543 8.36426302,3.1019963" id="Frame-Stuff" fill="#D6EAF2"></path>
                                        <path d="M71.4515513,3.1019963 C73.614046,3.22267531 76.0852132,3.25163827 78.1108512,4.18034198 C80.256065,5.16382346 80.58758,7.39103333 77.8832202,7.69787284 C76.6652154,7.83618148 75.4458203,7.60762593 74.2464868,7.39502099 C73.264257,7.22082346 71.9300531,7.27728025 71.0018509,6.90432963 C69.2719743,6.20963827 69.3832076,2.98446543 71.4515513,3.1019963" id="Frame-Stuff" fill="#D6EAF2"></path>
                                        <path d="M46.3369628,4.41536173 C45.1034283,2.96721358 41.8888012,2.13106543 39.8608013,2.13106543 C37.83259,2.13106543 34.7122,2.96721358 33.4788769,4.41536173 C32.8568273,5.14552222 32.8356979,6.12249753 33.9137199,6.58023827 C35.2560708,7.15047284 36.4547418,6.11641111 37.5291718,5.57555926 C38.9034281,4.88380617 41.0146779,4.95978148 42.2866678,5.57555926 C43.3693384,6.09983086 44.5595575,7.15047284 45.9021197,6.58023827 C46.9801418,6.12249753 46.9590124,5.14552222 46.3369628,4.41536173" id="Frame-Stuff" fill="#D6EAF2"></path>
                                    </g>
                                </g>
                            </g>
                        </g>
                    </g>
                </g>
            </g>
            <text id="处理周期共计7个月" font-family="PingFangSC-Medium, PingFang SC" font-size="6" font-weight="400" fill="#17A2D3">
                <tspan x="153" y="212">处理周期共计7个月</tspan>
            </text>
        </g>
    </g>
</svg>