<?xml version="1.0" encoding="UTF-8"?>
<svg width="480px" height="193px" viewBox="0 0 480 193" version="1.1" xmlns="http://www.w3.org/2000/svg" xmlns:xlink="http://www.w3.org/1999/xlink">
    <!-- Generator: Sketch 48.2 (47327) - http://www.bohemiancoding.com/sketch -->
    <title>Illustration</title>
    <desc>Created with Sketch.</desc>
    <defs>
        <filter x="-3.6%" y="-9.6%" width="107.2%" height="119.3%" filterUnits="objectBoundingBox" id="filter-1">
            <feOffset dx="0" dy="0" in="SourceAlpha" result="shadowOffsetOuter1"></feOffset>
            <feGaussianBlur stdDeviation="5.5" in="shadowOffsetOuter1" result="shadowBlurOuter1"></feGaussianBlur>
            <feColorMatrix values="0 0 0 0 0   0 0 0 0 0   0 0 0 0 0  0 0 0 0.5 0" type="matrix" in="shadowBlurOuter1" result="shadowMatrixOuter1"></feColorMatrix>
            <feMerge>
                <feMergeNode in="shadowMatrixOuter1"></feMergeNode>
                <feMergeNode in="SourceGraphic"></feMergeNode>
            </feMerge>
        </filter>
    </defs>
    <g id="首页" stroke="none" stroke-width="1" fill="none" fill-rule="evenodd">
        <g id="Illustration" filter="url(#filter-1)" transform="translate(11.000000, 11.000000)">
            <path d="M355,160 L142,160 L142,18.1759924 C142,8.1374236 149.738581,0 159.285125,0 L337.714875,0 C347.261419,0 355,8.1374236 355,18.1759924 L355,160 Z" id="Fill-3" fill="#6A7D88"></path>
            <path d="M344,158 L151,158 L151,19.9169327 C151,13.8879487 155.639098,9 161.362529,9 L333.636345,9 C339.359776,9 344,13.8879487 344,19.9169327 L344,158 Z" id="Fill-5" fill="#FFFFFF"></path>
            <path d="M268.220747,151 L268.220747,153.804698 C268.220747,156.231372 266.398476,158.198318 264.150292,158.198318 L232.848578,158.198318 C230.600395,158.198318 228.778124,156.231372 228.778124,153.804698 L228.778124,151 L126,151 L126,162.304152 C126,166.555099 129.191516,170 133.129791,170 L363.869079,170 C367.807354,170 371,166.555099 371,162.304152 L371,151 L268.220747,151 Z" id="Fill-7" fill="#A2B6BD"></path>
            <path d="M133.129791,169 L363.869079,169 C367.807354,169 371,165.86597 371,162 L126,162 C126,165.86597 129.191516,169 133.129791,169" id="Fill-9" fill="#768D9B"></path>
            <path d="M235,97 L175,97 L175,94.7654867 C175,93.2377089 176.12886,92 177.52228,92 L232.47772,92 C233.870018,92 235,93.2377089 235,94.7654867 L235,97 Z" id="Fill-11" fill="#0099D5"></path>
            <path d="M232.47772,136 L177.523401,136 C176.129982,136 175,134.799178 175,133.319594 L175,96 L235,96 L235,133.319594 C235,134.799178 233.87114,136 232.47772,136" id="Fill-13" fill="#E5EEEC"></path>
            <polygon id="Fill-15" fill="#4FCFF7" points="185.430206 125 184 123.569897 198.569794 109 200 110.431262"></polygon>
            <polygon id="Fill-17" fill="#4FCFF7" points="210.430206 121 209 119.569897 223.569794 105 225 106.431262"></polygon>
            <polygon id="Fill-19" fill="#4FCFF7" points="208 119.565571 206.565571 121 197 111.434429 198.434429 110"></polygon>
            <path d="M188,124 C188,125.657166 186.657166,127 185,127 C183.344039,127 182,125.657166 182,124 C182,122.342834 183.344039,121 185,121 C186.657166,121 188,122.342834 188,124" id="Fill-21" fill="#0099D5"></path>
            <path d="M201,111 C201,112.657166 199.657166,114 198,114 C196.344039,114 195,112.657166 195,111 C195,109.342834 196.344039,108 198,108 C199.657166,108 201,109.342834 201,111" id="Fill-23" fill="#0099D5"></path>
            <path d="M212,121 C212,122.657166 210.657166,124 209,124 C207.344039,124 206,122.657166 206,121 C206,119.342834 207.344039,118 209,118 C210.657166,118 212,119.342834 212,121" id="Fill-25" fill="#0099D5"></path>
            <path d="M227,105 C227,106.657166 225.657166,108 224,108 C222.344039,108 221,106.657166 221,105 C221,103.342834 222.344039,102 224,102 C225.657166,102 227,103.342834 227,105" id="Fill-27" fill="#0099D5"></path>
            <path d="M323,40 L215,40 L215,35.9648324 C215,33.2230037 217.026436,31 219.528349,31 L318.471651,31 C320.972432,31 323,33.2230037 323,35.9648324 L323,40 Z" id="Fill-29" fill="#FFFFFF"></path>
            <path d="M318.471698,109 L219.528302,109 C217.027547,109 215,106.875267 215,104.254645 L215,38 L323,38 L323,104.254645 C323,106.875267 320.972453,109 318.471698,109" id="Fill-31" fill="#E5EEEC"></path>
            <polygon id="Fill-33" fill="#17A2D3" points="227 98 239 98 239 77 227 77"></polygon>
            <polygon id="Fill-35" fill="#FFFFFF" points="227 91 239 91 239 77 227 77"></polygon>
            <polygon id="Fill-36" fill="#FFFFFF" points="251 98 263 98 263 69 251 69"></polygon>
            <polygon id="Fill-37" fill="#17A2D3" points="251 81 263 81 263 69 251 69"></polygon>
            <polygon id="Fill-38" fill="#FFFFFF" points="275 98 287 98 287 60 275 60"></polygon>
            <polygon id="Fill-39" fill="#17A2D3" points="275 79 287 79 287 60 275 60"></polygon>
            <polygon id="Fill-40" fill="#FFFFFF" points="299 99 311 99 311 50 299 50"></polygon>
            <polygon id="Fill-41" fill="#17A2D3" points="299 77 311 77 311 50 299 50"></polygon>
            <path d="M69.0911449,132.325682 L55.5041741,136.939422 C54.6119757,137.242911 53.7702157,136.354881 54.0571539,135.416073 L58.4363236,121.100136 C61.1880158,112.106473 65.9303416,103.932348 72.2721235,97.2508689 C78.6139054,90.5693897 86.3724446,85.5730415 94.9088551,82.673955 L108.495826,78.0602153 C109.388024,77.7579073 110.229784,78.6447562 109.942846,79.5847451 L105.563676,93.8995013 C102.811984,102.893164 98.0696584,111.06847 91.7278765,117.748768 C85.3860946,124.430247 77.6275554,129.426596 69.0911449,132.325682" id="Fill-42" fill-opacity="0.460000008" fill="#8ED1C2"></path>
            <path d="M63.6663815,120.859292 L57.0407756,134.337391 C56.6062161,135.22087 55.3937839,135.22087 54.9592244,134.337391 L48.3336185,120.859292 C44.1705161,112.391931 42,103.013742 42,93.5 C42,83.9850686 44.1705161,74.6080692 48.3336185,66.1407077 L54.9592244,52.6626088 C55.3937839,51.7791304 56.6062161,51.7791304 57.0407756,52.6626088 L63.6663815,66.1407077 C67.8283433,74.6080692 70,83.9850686 70,93.5 C70,103.013742 67.8283433,112.391931 63.6663815,120.859292" id="Fill-43" fill-opacity="0.720000029" fill="#8ED1C2"></path>
            <path d="M55.9425021,138.415245 C56.2305594,139.35524 55.3876837,140.242094 54.4966116,139.939784 L40.9086036,135.326016 C32.3722455,132.426912 24.6137541,127.430533 18.2720111,120.749013 C11.9302682,114.067493 7.18797159,105.893317 4.43629628,96.8995991 L0.0571535438,82.5847549 C-0.229782863,81.6447602 0.611971986,80.7579059 1.50416488,81.0602157 L15.0910521,85.6739838 C23.6274102,88.5730881 31.3870224,93.569467 37.7276445,100.250987 C44.0693874,106.932507 48.8116841,115.106683 51.5633594,124.100401 L55.9425021,138.415245 Z" id="Fill-44" fill="#8ED1C2"></path>
            <path d="M42.0558335,171 C29.3220913,171 19,160.211334 19,146.902007 L19,130 L89,130 L89,146.902007 C89,160.211334 78.6779087,171 65.9441665,171 L42.0558335,171 Z" id="Fill-45" fill="#0099D5"></path>
            <path d="M54,130 L54,171 L65.9441665,171 C78.6779087,171 89,160.211334 89,146.902007 L89,130 L54,130 Z" id="Fill-46" fill="#0077C1"></path>
            <path d="M65.0769389,133.04756 L65.0769389,119.95364 C65.0769389,116.397089 67.7356355,113.512944 71.0155436,113.512944 L85,113.512944 L85,106 L69.8772095,106 C63.3173933,106 58,111.767088 58,118.880191 L58,134.12101 C58,141.234112 63.3173933,147 69.8772095,147 L85,147 L85,139.487056 L71.0155436,139.487056 C67.7356355,139.487056 65.0769389,136.604112 65.0769389,133.04756" id="Fill-47" fill="#CAD8D5"></path>
            <path d="M125.149879,171 L87.850121,171 C82.4106201,171 78,166.370198 78,160.660386 L78,106 L135,106 L135,160.660386 C135,166.370198 130.590511,171 125.149879,171" id="Fill-48" fill="#E5EEEC"></path>
            <polygon id="Fill-49" fill="#FFFFFF" points="118 139 120 139 120 105 118 105"></polygon>
            <polygon id="Fill-50" fill="#FCA356" points="113 148 124 148 124 129 113 129"></polygon>
            <path d="M418.5,84 C417.671863,84 417,83.2932565 417,82.4221262 L417,75.5778738 C417,74.7067435 417.671863,74 418.5,74 C419.328137,74 420,74.7067435 420,75.5778738 L420,82.4221262 C420,83.2932565 419.328137,84 418.5,84" id="Fill-53" fill="#A2B6BD"></path>
            <path d="M396.35071,91.6931661 C395.651127,92.2185733 394.675304,92.0524089 394.17111,91.3233917 L383.294446,75.5787283 C382.790252,74.848541 382.949707,73.8316616 383.64929,73.3062544 C384.349996,72.7820173 385.325819,72.9470116 385.82889,73.6771989 L396.705554,89.4218623 C397.209748,90.1508795 397.050293,91.1677589 396.35071,91.6931661" id="Fill-54" fill="#A2B6BD"></path>
            <path d="M391.13856,167.880654 C390.22672,167.52405 389.768527,166.477545 390.116436,165.54175 L396.696004,153 L400,154.291234 L393.420432,166.832983 C393.072523,167.767613 392.050399,168.237258 391.13856,167.880654" id="Fill-55" fill="#768D9B"></path>
            <path d="M445.896325,167.880654 C446.780226,167.52405 447.224381,166.477545 446.887132,165.54175 L440.202765,153 L437,154.291234 L443.684367,166.832983 C444.021616,167.767613 445.012423,168.237258 445.896325,167.880654" id="Fill-56" fill="#768D9B"></path>
            <path d="M382.155479,100 L382.801425,99.0753707 C389.055208,90.1170579 397.918346,83.6410831 407.992218,80.6720355 L408,80.6506155 C403.098146,72.641922 393.023163,70.6034536 385.744316,76.0488892 C378.465469,81.4931349 376.791123,92.3209362 382.133243,100 L382.155479,100 Z" id="Fill-57" fill="#6A7D88"></path>
            <path d="M439.64929,91.6931661 C440.348873,92.2185733 441.324696,92.0524089 441.82889,91.3233917 L452.705554,75.5787283 C453.209748,74.848541 453.050293,73.8316616 452.35071,73.3062544 C451.650004,72.7820173 450.674181,72.9470116 450.17111,73.6771989 L439.294446,89.4218623 C438.790252,90.1508795 438.949707,91.1677589 439.64929,91.6931661" id="Fill-58" fill="#A2B6BD"></path>
            <path d="M453.844521,100 L453.198575,99.0753707 C446.944792,90.1170579 438.081654,83.6410831 428.007782,80.6720355 L428,80.6506155 C432.901854,72.641922 442.976837,70.6034536 450.255684,76.0488892 C457.534531,81.4931349 459.208877,92.3209362 453.866757,100 L453.844521,100 Z" id="Fill-59" fill="#6A7D88"></path>
            <path d="M458,124.5 C458,147.419698 440.314882,166 418.500564,166 C396.685118,166 379,147.419698 379,124.5 C379,101.580302 396.685118,83 418.500564,83 C440.314882,83 458,101.580302 458,124.5" id="Fill-60" fill="#6A7D88"></path>
            <path d="M453,124.5 C453,144.658648 437.554316,161 418.500561,161 C399.446806,161 384,144.658648 384,124.5 C384,104.341352 399.446806,88 418.500561,88 C437.554316,88 453,104.341352 453,124.5" id="Fill-61" fill="#E5EEEC"></path>
            <path d="M416.527526,95.4431149 L415.004566,126.492962 C414.958974,127.406582 415.256402,128.300943 415.826291,128.96419 C417.006232,130.338833 418.992702,130.348463 420.173729,128.97382 C420.74796,128.304554 421.045388,127.401767 420.994369,126.479721 L419.274933,95.4322815 C419.168554,93.5159661 416.621965,93.5255958 416.527526,95.4431149" id="Fill-62" fill="#A2B6BD"></path>
            <path d="M397.364165,128.19198 L418.705989,129.995394 C419.567872,130.044785 420.408208,129.695247 421.03194,129.029098 C422.322497,127.646143 422.324765,125.328553 421.02627,123.955729 C420.393466,123.288314 419.540655,122.945108 418.673101,123.007164 L397.344886,124.986613 C395.539467,125.117057 395.557612,128.089398 397.364165,128.19198" id="Fill-63" fill="#A2B6BD"></path>
        </g>
    </g>
</svg>