<?xml version="1.0" encoding="UTF-8"?>
<svg width="53px" height="71px" viewBox="0 0 53 71" version="1.1" xmlns="http://www.w3.org/2000/svg" xmlns:xlink="http://www.w3.org/1999/xlink">
    <!-- Generator: Sketch 48.2 (47327) - http://www.bohemiancoding.com/sketch -->
    <title>avataaar</title>
    <desc>Created with Sketch.</desc>
    <defs>
        <path d="M19.8636364,37.6986413 C15.3679801,35.562988 12.1337687,31.2029912 11.5832294,26.0408782 C10.0591373,25.8271599 8.88636364,24.5180704 8.88636364,22.9350649 L8.88636364,19.3006494 C8.88636364,17.7465831 10.0166498,16.4565094 11.5,16.2076504 L11.5,14.6363636 C11.5,6.55292321 18.0529232,1.48490392e-15 26.1363636,0 C34.2198041,-1.48490392e-15 40.7727273,6.55292321 40.7727273,14.6363636 L40.7727273,16.2076504 C42.2560774,16.4565094 43.3863636,17.7465831 43.3863636,19.3006494 L43.3863636,22.9350649 C43.3863636,24.5180704 42.21359,25.8271599 40.6894978,26.0408782 C40.1389586,31.2029912 36.9047472,35.562988 32.4090909,37.6986413 L32.4090909,42.5330573 C43.4882994,43.1819889 52.2727273,52.3722808 52.2727273,63.6142857 L0,63.6142857 C-1.37674854e-15,52.3722808 8.78442787,43.1819889 19.8636364,42.5330573 L19.8636364,37.6986413 Z" id="path-1"></path>
        <path d="M47.5608658,9.31869202 C55.2424839,12.5485589 60.6363636,20.1443754 60.6363636,29 L8.36363636,29 C8.36363636,20.0414278 13.883654,12.3721247 21.7079559,9.20782427 C21.6981436,9.33199399 21.6931818,9.45692676 21.6931818,9.58255571 C21.6931818,13.8749171 27.4854979,17.3545634 34.6306818,17.3545634 C41.7758658,17.3545634 47.5681818,13.8749171 47.5681818,9.58255571 C47.5681818,9.49424943 47.5657303,9.40628713 47.5608658,9.31869202 Z" id="path-3"></path>
        <rect id="path-5" x="0" y="0" width="69" height="73"></rect>
        <path d="M23.923761,14.4334869 L46.0751847,14.4334869 C50.8771788,11.6888122 51.7787888,6.8179486 48.3814752,2.58785023 C47.5357227,1.53477821 46.0751847,5.65112851 41.5864726,5.90530576 C37.0977606,6.15948301 37.5286486,4.26264366 32.7519975,4.97284468 C27.9753463,5.68304569 28.5030461,9.4843764 25.386105,10.3964577 C23.3081443,11.0045118 22.8206963,12.3501882 23.923761,14.4334869 Z" id="path-7"></path>
        <filter x="-3.0%" y="-10.2%" width="106.6%" height="142.1%" filterUnits="objectBoundingBox" id="filter-9">
            <feOffset dx="0" dy="2" in="SourceAlpha" result="shadowOffsetOuter1"></feOffset>
            <feColorMatrix values="0 0 0 0 0   0 0 0 0 0   0 0 0 0 0  0 0 0 0.1 0" type="matrix" in="shadowOffsetOuter1" result="shadowMatrixOuter1"></feColorMatrix>
            <feMerge>
                <feMergeNode in="shadowMatrixOuter1"></feMergeNode>
                <feMergeNode in="SourceGraphic"></feMergeNode>
            </feMerge>
        </filter>
    </defs>
    <g id="æ¡ˆä¾‹åˆ—è¡¨" stroke="none" stroke-width="1" fill="none" fill-rule="evenodd">
        <g id="Avataaar/Default" transform="translate(-8.000000, -2.000000)">
            <g id="Body" stroke-width="1" fill-rule="evenodd" transform="translate(8.363636, 9.385714)">
                <mask id="mask-2" fill="white">
                    <use xlink:href="#path-1"></use>
                </mask>
                <use fill="#D0C6AC" xlink:href="#path-1"></use>
                <g id="Skin/ðŸ‘¶ðŸ¼-04-Light" mask="url(#mask-2)" fill="#EDB98A">
                    <g transform="translate(-8.363636, 0.000000)" id="Color">
                        <rect x="0" y="0" width="69" height="64"></rect>
                    </g>
                </g>
                <path d="M40.7727273,24.4707792 L40.7727273,26.5564935 C40.7727273,34.6399339 34.2198041,41.1928571 26.1363636,41.1928571 C18.0529232,41.1928571 11.5,34.6399339 11.5,26.5564935 L11.5,24.4707792 C11.5,32.5542197 18.0529232,39.1071429 26.1363636,39.1071429 C34.2198041,39.1071429 40.7727273,32.5542197 40.7727273,24.4707792 Z" id="Neck-Shadow" fill-opacity="0.100000001" fill="#000000" mask="url(#mask-2)"></path>
            </g>
            <g id="Clothing/Shirt-Scoop-Neck" transform="translate(0.000000, 44.321429)">
                <mask id="mask-4" fill="white">
                    <use xlink:href="#path-3"></use>
                </mask>
                <use id="Clothes" fill="#E6E6E6" fill-rule="evenodd" xlink:href="#path-3"></use>
                <g id="Color/Palette/Gray-01" mask="url(#mask-4)" fill="#E6E6E6" fill-rule="evenodd">
                    <rect id="ðŸ–Color" x="0" y="0" width="69" height="29"></rect>
                </g>
            </g>
            <g id="Face" stroke-width="1" fill-rule="evenodd" transform="translate(19.863636, 21.378571)" fill="#000000">
                <g id="Mouth/Default" transform="translate(0.522727, 13.557143)" fill-opacity="0.699999988">
                    <path d="M10.3703704,3.75 C10.3703704,5.68299662 11.9954109,7.25 14,7.25 C16.0045891,7.25 17.6296296,5.68299662 17.6296296,3.75" id="Mouth"></path>
                </g>
                <g id="Nose/Default" transform="translate(7.318182, 10.428571)" fill-opacity="0.16">
                    <path d="M4.28571429,2 C4.28571429,3.1045695 5.72479902,4 7.5,4 C9.27520098,4 10.7142857,3.1045695 10.7142857,2" id="Nose"></path>
                </g>
                <g id="Eyes/Default-ðŸ˜€" transform="translate(0.000000, 2.085714)" fill-opacity="0.599999964">
                    <ellipse id="Eye" cx="7.76785714" cy="5.5" rx="1.55357143" ry="1.5"></ellipse>
                    <ellipse id="Eye" cx="21.2321429" cy="5.5" rx="1.55357143" ry="1.5"></ellipse>
                </g>
                <g id="Eyebrow/Outline/Default" fill-opacity="0.599999964">
                    <g id="I-Browse" transform="translate(3.107143, 1.500000)">
                        <path d="M0.939974245,2.78964419 C1.95365621,1.41246668 4.73267564,0.640209302 7.126498,1.20779511 C7.40425017,1.27365137 7.68470651,1.10964003 7.75291478,0.841465529 C7.82112305,0.573291026 7.65125416,0.30250559 7.373502,0.23664933 C4.59348692,-0.422504473 1.37545437,0.47174958 0.0957400405,2.21035581 C-0.0699390996,2.43544573 -0.0152603157,2.74759527 0.217868523,2.90756134 C0.450997361,3.06752741 0.774295105,3.0147341 0.939974245,2.78964419 Z" id="Eyebrow" fill-rule="nonzero"></path>
                        <path d="M15.9578314,2.78964419 C16.9715133,1.41246668 19.7505328,0.640209302 22.1443551,1.20779511 C22.4221073,1.27365137 22.7025637,1.10964003 22.7707719,0.841465529 C22.8389802,0.573291026 22.6691113,0.30250559 22.3913591,0.23664933 C19.6113441,-0.422504473 16.3933115,0.47174958 15.1135972,2.21035581 C14.947918,2.43544573 15.0025968,2.74759527 15.2357257,2.90756134 C15.4688545,3.06752741 15.7921522,3.0147341 15.9578314,2.78964419 Z" id="Eyebrow" fill-rule="nonzero" transform="translate(18.901825, 1.509800) scale(-1, 1) translate(-18.901825, -1.509800) "></path>
                    </g>
                </g>
            </g>
            <g id="Top" stroke-width="1" fill-rule="evenodd">
                <mask id="mask-6" fill="white">
                    <use xlink:href="#path-5"></use>
                </mask>
                <g id="Mask"></g>
                <g id="Top/Short-Hair/Frizzle" mask="url(#mask-6)">
                    <g transform="translate(-0.261364, 0.000000)">
                        <g id="Facial-Hair/-Blank" stroke="none" fill="none" transform="translate(12.894737, 18.771429)"></g>
                        <mask id="mask-8" fill="white">
                            <use xlink:href="#path-7"></use>
                        </mask>
                        <use id="Hair-Maks" stroke="none" fill="#252E32" fill-rule="evenodd" xlink:href="#path-7"></use>
                        <g id="Color/Hair/Brown" stroke="none" fill="none" mask="url(#mask-8)" fill-rule="evenodd">
                            <g transform="translate(0.263158, 0.000000)" fill="#724133" id="Color">
                                <rect x="0" y="0" width="69" height="73"></rect>
                            </g>
                        </g>
                        <g id="Top/_Resources/Prescription-01" stroke="none" fill="none" mask="url(#mask-8)" fill-rule="evenodd" stroke-width="1">
                            <g transform="translate(16.315789, 22.160714)" id="Glasses">
                                <g filter="url(#filter-9)" transform="translate(2.084507, 2.074074)">
                                    <path d="M12.0508322,1.88615432 C12.668792,1.89194444 12.9609201,1.99417901 13.0662009,2.63541358 C13.1728715,3.28494444 13.0691543,4.01519136 12.946153,4.65495679 C12.7584371,5.63184568 12.4462431,6.58894444 11.7195279,7.30294444 C11.3367124,7.67895679 10.8698113,7.97866049 10.3732023,8.18330247 C10.1094792,8.29201852 9.83098901,8.37048765 9.55258567,8.43003086 C9.47119287,8.44740123 8.7763572,8.5426358 9.20251844,8.49424074 C8.20799743,8.60719136 7.12904333,8.60269753 6.29843717,7.97287037 C5.37792541,7.27485802 4.7475438,6.17032716 4.47035658,5.07011728 C4.30817903,4.42637654 3.96740639,2.88672222 4.59005698,2.37200617 C5.3033081,1.78227778 12.0508322,1.88615432 12.0508322,1.88615432 Z M5.78914582,0.127166667 C4.37159071,0.175734568 3.42554054,0.42358642 2.72636161,1.83274691 C1.44501132,4.4152284 3.63818684,8.28821605 6.08474849,9.34357407 C8.94496278,10.5775617 12.1402166,9.21195679 13.652368,6.74225309 C14.4531794,5.4346358 14.8579718,3.45415432 14.8319122,1.94543827 C14.7987296,0.0198333333 13.4469316,-0.0335740741 11.8579912,0.00877160494 L5.78914582,0.127166667 Z" id="Frame-Stuff" fill="#D6EAF2"></path>
                                    <path d="M20.7618338,1.88548025 C20.143874,1.89135679 19.8517459,1.99350494 19.7464651,2.63473951 C19.6397945,3.28427037 19.7435117,4.01451728 19.8664261,4.65428272 C20.054229,5.6311716 20.3664229,6.58827037 21.0931382,7.30227037 C21.4759536,7.67828272 21.9428547,7.97798642 22.4394637,8.18271481 C22.7031868,8.29134444 22.981677,8.36981358 23.2600803,8.42935679 C23.3414732,8.44672716 24.036222,8.54204815 23.6101476,8.49356667 C24.6046686,8.60651728 25.6836227,8.60202346 26.5142289,7.9721963 C27.4347406,7.27418395 28.0651222,6.16973951 28.3423094,5.06952963 C28.504487,4.42570247 28.8451728,2.88613457 28.222609,2.3713321 C27.5093579,1.7816037 20.7618338,1.88548025 20.7618338,1.88548025 Z M27.0234333,0.126492593 C28.4410753,0.175060494 29.3871255,0.422998765 30.0863044,1.83207284 C31.3675678,4.41455432 29.1744792,8.28754198 26.7279175,9.34298642 C23.8677032,10.5768877 20.6724494,9.21128272 19.1602111,6.74166543 C18.3594866,5.43396173 17.9546943,3.45348025 17.980667,1.9447642 C18.0139364,0.0191592593 19.3657345,-0.0342481481 20.9546748,0.00818395062 L27.0234333,0.126492593 Z" id="Frame-Stuff" fill="#D6EAF2"></path>
                                    <path d="M3.43864146,1.27729259 C2.5496163,1.32698395 1.53369254,1.33890988 0.700930664,1.72131728 C-0.180990133,2.12628025 -0.31727956,3.04336667 0.794512259,3.16971235 C1.29524729,3.22666296 1.79655393,3.13255185 2.28961299,3.04500864 C2.69341839,2.97328025 3.24192413,2.99652716 3.62351819,2.84295926 C4.33460766,2.55690988 4.2889601,1.22889753 3.43864146,1.27729259" id="Frame-Stuff" fill="#D6EAF2"></path>
                                    <path d="M29.3745266,1.27729259 C30.2635522,1.32698395 31.2794765,1.33890988 32.1122388,1.72131728 C32.9941601,2.12628025 33.1304496,3.04336667 32.0186572,3.16971235 C31.5179219,3.22666296 31.016615,3.13255185 30.5235557,3.04500864 C30.1197501,2.97328025 29.5712441,2.99652716 29.1896498,2.84295926 C28.4784783,2.55690988 28.5242076,1.22889753 29.3745266,1.27729259" id="Frame-Stuff" fill="#D6EAF2"></path>
                                    <path d="M19.0496403,1.81809012 C18.5425205,1.22179383 17.2209516,0.877497531 16.3872183,0.877497531 C15.5533981,0.877497531 14.2705711,1.22179383 13.7635383,1.81809012 C13.5078068,2.11874444 13.4991202,2.5210284 13.9423071,2.70950988 C14.4941624,2.94431235 14.9869494,2.51852222 15.4286595,2.29581852 C15.9936315,2.01097901 16.8615898,2.04226296 17.384519,2.29581852 C17.8296169,2.51169506 18.3189292,2.94431235 18.8708714,2.70950988 C19.3140583,2.5210284 19.3053718,2.11874444 19.0496403,1.81809012" id="Frame-Stuff" fill="#D6EAF2"></path>
                                </g>
                            </g>
                        </g>
                    </g>
                </g>
            </g>
        </g>
    </g>
</svg>