<?xml version="1.0" encoding="UTF-8"?>
<svg width="28px" height="30px" viewBox="0 0 28 30" version="1.1" xmlns="http://www.w3.org/2000/svg" xmlns:xlink="http://www.w3.org/1999/xlink">
    <!-- Generator: Sketch 48.2 (47327) - http://www.bohemiancoding.com/sketch -->
    <title>Icon</title>
    <desc>Created with Sketch.</desc>
    <defs></defs>
    <g id="案例列表" stroke="none" stroke-width="1" fill="none" fill-rule="evenodd">
        <g id="Icon">
            <path d="M0.965243243,15.4158098 L10.2902523,15.4158098 C10.7082342,15.4158098 11.047009,15.0574218 11.047009,14.6152409 L11.047009,3.37311738 L8.12441441,0.0432840967 L0.965243243,0.0432840967 C0.547261261,0.0432840967 0.208486486,0.401672148 0.208486486,0.843853087 L0.208486486,14.6152409 C0.208486486,15.0574218 0.547261261,15.4158098 0.965243243,15.4158098" id="Fill-3" fill="#C5E7DE"></path>
            <path d="M8.12433874,2.57244165 L8.12433874,0.0431773542 L11.0469333,3.37301064 L8.8810955,3.37301064 C8.46311351,3.37301064 8.12433874,3.01462259 8.12433874,2.57244165" id="Fill-5" fill="#9BC6BA"></path>
            <path d="M5.73434955,10.0628053 L5.73434955,7.92048267 L6.03326847,7.89806674 C7.32051171,7.80173161 8.35197117,6.73243829 8.46876396,5.37253844 L8.5060973,4.93969747 L8.10047568,4.97011909 C6.94995315,5.05631368 6.00577297,5.92066134 5.73434955,7.07428125 L5.73434955,5.3458528 L5.5211964,5.3458528 L5.5211964,7.07428125 C5.48714234,6.92991198 5.44274595,6.79034612 5.38876396,6.65611738 C5.30779099,6.45490771 5.20512432,6.26597343 5.08379099,6.09251681 C5.00307027,5.97670117 4.91402523,5.86809064 4.81766486,5.76721895 C4.67312432,5.61591141 4.51218739,5.48221639 4.33788108,5.36960302 C4.22159279,5.29434953 4.09925045,5.22870287 3.97186306,5.1729299 C3.71734054,5.06191767 3.44263784,4.99173445 3.15507027,4.97011909 L2.74944865,4.93969747 L2.78652973,5.37253844 C2.79762883,5.50009576 2.81654775,5.62498452 2.84303423,5.74693787 C2.87834955,5.90918651 2.92703423,6.06609804 2.98757477,6.21607129 C3.0635027,6.40367129 3.1580973,6.58033018 3.26908829,6.74391312 C3.57986306,7.20157172 4.01827748,7.55435579 4.52934054,7.74569178 C4.56591712,7.75930145 4.60274595,7.77237741 4.64007928,7.78438595 C4.71449369,7.80813616 4.79042162,7.82895095 4.86735856,7.8457629 C4.98314234,7.87138111 5.10144865,7.88899363 5.22227748,7.89806674 L5.5211964,7.92048267 L5.5211964,10.0628053 C5.48714234,9.91870287 5.44274595,9.77887016 5.38876396,9.64464142 C5.30779099,9.44343175 5.20512432,9.25449747 5.08379099,9.08104085 C5.00307027,8.96549206 4.91402523,8.85661468 4.81766486,8.75574299 C4.67312432,8.60443545 4.51218739,8.47100728 4.33788108,8.35812706 C4.22159279,8.28314043 4.09925045,8.21722691 3.97186306,8.1617208 C3.71734054,8.05044171 3.44263784,7.98025849 3.15507027,7.95864313 L2.74944865,7.92848836 L2.78652973,8.36132933 C2.79762883,8.4886198 2.81654775,8.61350856 2.84303423,8.73546191 C2.87834955,8.89771055 2.92703423,9.05462208 2.98757477,9.20459533 C3.03323243,9.31720871 3.08544865,9.42581923 3.14397117,9.53016006 C3.45600721,10.0857549 3.94537658,10.5156605 4.52934054,10.7344827 C4.56591712,10.7480923 4.60274595,10.7609015 4.64007928,10.77291 C4.82624144,10.8326858 5.02098018,10.8716468 5.22227748,10.8865908 L5.5211964,10.9090067 L5.5211964,13.2063729 L5.73434955,13.2063729 L5.73434955,10.9090067 L6.03326847,10.8865908 C7.32051171,10.7902556 8.35197117,9.72096233 8.46876396,8.36132933 L8.5060973,7.92848836 L8.10047568,7.95864313 C6.94995315,8.04483772 6.00577297,8.90945223 5.73434955,10.0628053" id="Fill-7" fill="#FFFFFF"></path>
            <path d="M5.62774775,3.53005559 C5.96122523,3.53005559 6.23138739,3.2439856 6.23138739,2.89146839 C6.23138739,2.53868432 5.96122523,2.25261434 5.62774775,2.25261434 C5.29427027,2.25261434 5.02410811,2.53868432 5.02410811,2.89146839 C5.02410811,3.2439856 5.29427027,3.53005559 5.62774775,3.53005559" id="Fill-9" fill="#FFFFFF"></path>
            <path d="M5.83585586,4.30113696 C5.83585586,4.65392102 6.10627027,4.93972415 6.4394955,4.93972415 C6.77297297,4.93972415 7.04338739,4.65392102 7.04338739,4.30113696 C7.04338739,3.94835289 6.77297297,3.66254976 6.4394955,3.66254976 C6.10627027,3.66254976 5.83585586,3.94835289 5.83585586,4.30113696" id="Fill-11" fill="#FFFFFF"></path>
            <path d="M4.82505586,4.9398309 C5.15853333,4.9398309 5.4286955,4.65376091 5.4286955,4.3012437 C5.4286955,3.94845963 5.15853333,3.66238964 4.82505586,3.66238964 C4.49157838,3.66238964 4.22141622,3.94845963 4.22141622,4.3012437 C4.22141622,4.65376091 4.49157838,4.9398309 4.82505586,4.9398309" id="Fill-13" fill="#FFFFFF"></path>
            <path d="M8.54683604,29.1945628 L22.6426919,29.1945628 C23.2344757,29.1945628 23.7140072,28.6870021 23.7140072,28.0609572 L23.7140072,11.0648775 L19.4113405,6.16272671 L8.54683604,6.16272671 C7.95505225,6.16272671 7.47526847,6.67028745 7.47526847,7.29606555 L7.47526847,28.0609572 C7.47526847,28.6870021 7.95505225,29.1945628 8.54683604,29.1945628" id="Fill-15" fill="#E5EEEC"></path>
            <polygon id="Fill-17" fill="#CAD8D5" points="19.4112396 11.0649309 19.4112396 6.16278009 23.7141586 11.0649309"></polygon>
            <path d="M20.3553694,15.4413747 L10.8341081,15.4413747 C10.5553694,15.4413747 10.3296036,15.2025383 10.3296036,14.907662 C10.3296036,14.6127858 10.5553694,14.3739494 10.8341081,14.3739494 L20.3553694,14.3739494 C20.6341081,14.3739494 20.8598739,14.6127858 20.8598739,14.907662 C20.8598739,15.2025383 20.6341081,15.4413747 20.3553694,15.4413747" id="Fill-19" fill="#FFFFFF"></path>
            <path d="M20.3553694,18.2054725 L10.8341081,18.2054725 C10.5553694,18.2054725 10.3296036,17.9666361 10.3296036,17.6717599 C10.3296036,17.3768836 10.5553694,17.1380472 10.8341081,17.1380472 L20.3553694,17.1380472 C20.6341081,17.1380472 20.8598739,17.3768836 20.8598739,17.6717599 C20.8598739,17.9666361 20.6341081,18.2054725 20.3553694,18.2054725" id="Fill-21" fill="#FFFFFF"></path>
            <path d="M20.3553694,20.9695704 L10.8341081,20.9695704 C10.5553694,20.9695704 10.3296036,20.730734 10.3296036,20.4358578 C10.3296036,20.1409815 10.5553694,19.9021451 10.8341081,19.9021451 L20.3553694,19.9021451 C20.6341081,19.9021451 20.8598739,20.1409815 20.8598739,20.4358578 C20.8598739,20.730734 20.6341081,20.9695704 20.3553694,20.9695704" id="Fill-23" fill="#FFFFFF"></path>
            <path d="M17.8546919,23.733695 L10.8340072,23.733695 C10.5555207,23.733695 10.3295027,23.4948585 10.3295027,23.1999823 C10.3295027,22.9051061 10.5555207,22.6662696 10.8340072,22.6662696 L17.8546919,22.6662696 C18.1334306,22.6662696 18.3591964,22.9051061 18.3591964,23.1999823 C18.3591964,23.4948585 18.1334306,23.733695 17.8546919,23.733695" id="Fill-25" fill="#FFFFFF"></path>
            <path d="M11.9769622,12.4131424 L12.0415387,12.4131424 C12.9514126,12.4131424 13.6889982,11.6328545 13.6889982,10.6703037 C13.6889982,9.7080198 12.9514126,8.92773189 12.0415387,8.92773189 L11.9769622,8.92773189 C11.0670883,8.92773189 10.3295027,9.7080198 10.3295027,10.6703037 C10.3295027,11.6328545 11.0670883,12.4131424 11.9769622,12.4131424" id="Fill-27" fill="#A2B6BD"></path>
            <path d="M26.8047784,27.0418328 L19.4609586,27.0418328 C18.9037333,27.0418328 18.4519495,26.5638931 18.4519495,25.9744075 L18.4519495,18.2054192 C18.4519495,17.6159335 18.9037333,17.1379939 19.4609586,17.1379939 L26.8047784,17.1379939 C27.3620036,17.1379939 27.8137874,17.6159335 27.8137874,18.2054192 L27.8137874,25.9744075 C27.8137874,26.5638931 27.3620036,27.0418328 26.8047784,27.0418328" id="Fill-29" fill="#0099D5"></path>
            <path d="M21.4607387,19.3972796 L21.4607387,25.0679766 C21.4607387,25.3073467 21.2770991,25.5016182 21.0508288,25.5016182 C20.8245586,25.5016182 20.6409189,25.3073467 20.6409189,25.0679766 L20.6409189,19.3972796 C20.6409189,19.1579095 20.8245586,18.9636381 21.0508288,18.9636381 C21.2770991,18.9636381 21.4607387,19.1579095 21.4607387,19.3972796" id="Fill-31" fill="#0077C1"></path>
            <path d="M23.5428288,19.3972796 L23.5428288,25.0679766 C23.5428288,25.3073467 23.3591892,25.5016182 23.1329189,25.5016182 C22.9066486,25.5016182 22.723009,25.3073467 22.723009,25.0679766 L22.723009,19.3972796 C22.723009,19.1579095 22.9066486,18.9636381 23.1329189,18.9636381 C23.3591892,18.9636381 23.5428288,19.1579095 23.5428288,19.3972796" id="Fill-33" fill="#0077C1"></path>
            <path d="M25.6249189,19.3972796 L25.6249189,25.0679766 C25.6249189,25.3073467 25.4412793,25.5016182 25.215009,25.5016182 C24.9887387,25.5016182 24.8050991,25.3073467 24.8050991,25.0679766 L24.8050991,19.3972796 C24.8050991,19.1579095 24.9887387,18.9636381 25.215009,18.9636381 C25.4412793,18.9636381 25.6249189,19.1579095 25.6249189,19.3972796" id="Fill-35" fill="#0077C1"></path>
            <path d="M21.9380252,21.2532921 C21.9380252,21.7720608 21.5404757,22.1926263 21.0500973,22.1926263 C20.5597189,22.1926263 20.1621694,21.7720608 20.1621694,21.2532921 C20.1621694,20.7345234 20.5597189,20.3139578 21.0500973,20.3139578 C21.5404757,20.3139578 21.9380252,20.7345234 21.9380252,21.2532921" id="Fill-37" fill="#FFFFFF"></path>
            <path d="M24.0208721,23.4214997 C24.0208721,23.9402684 23.6233225,24.360834 23.1329441,24.360834 C22.6425658,24.360834 22.2450162,23.9402684 22.2450162,23.4214997 C22.2450162,22.902731 22.6425658,22.4821655 23.1329441,22.4821655 C23.6233225,22.4821655 24.0208721,22.902731 24.0208721,23.4214997" id="Fill-39" fill="#FFFFFF"></path>
            <path d="M26.1029622,20.3139311 C26.1029622,20.8326998 25.7054126,21.2532654 25.2150342,21.2532654 C24.7246559,21.2532654 24.3271063,20.8326998 24.3271063,20.3139311 C24.3271063,19.7951624 24.7246559,19.3745968 25.2150342,19.3745968 C25.7054126,19.3745968 26.1029622,19.7951624 26.1029622,20.3139311" id="Fill-41" fill="#FFFFFF"></path>
        </g>
    </g>
</svg>