<?xml version="1.0" encoding="UTF-8"?>
<svg width="28px" height="30px" viewBox="0 0 28 30" version="1.1" xmlns="http://www.w3.org/2000/svg" xmlns:xlink="http://www.w3.org/1999/xlink">
    <!-- Generator: Sketch 48.2 (47327) - http://www.bohemiancoding.com/sketch -->
    <title>Icon</title>
    <desc>Created with Sketch.</desc>
    <defs></defs>
    <g id="案例列表" stroke="none" stroke-width="1" fill="none" fill-rule="evenodd">
        <g id="Icon" transform="translate(2.000000, 1.000000)">
            <polygon id="Fill-3" fill="#A2B6BD" points="5.54852785 17 16 13.5500511 12.1923621 1.6210892 9.3325799 0 1 2.75048499"></polygon>
            <polygon id="Fill-4" fill="#E5EEEC" points="9.77721649 2 9 0 12 1.39715762"></polygon>
            <polygon id="Fill-5" fill="#C5E7DE" points="7 18.0265902 17.5167522 22 22 10.2578277 20.7398129 7.16779822 12.3552671 4"></polygon>
            <polygon id="Fill-6" fill="#9BC6BA" points="19 9.21786027 19.8179502 7 21 10"></polygon>
            <path d="M13.0768135,14.3433458 L13.7313396,12.5327493 L13.9923031,12.6153525 C15.1171457,12.971075 16.321389,12.4173272 16.83617,11.3078849 L17,10.9549437 L16.6456084,10.8428591 C15.6403961,10.5246836 14.5729866,10.9349186 13.9896564,11.8174107 L14.5176708,10.3566959 L14.3363726,10.2843833 L13.8083582,11.745098 C13.8234444,11.611876 13.8284731,11.4786539 13.8234444,11.3468224 C13.8160336,11.1493534 13.7863907,10.9546656 13.7361036,10.7669309 C13.7027554,10.6417744 13.6601437,10.5196774 13.6090626,10.4017522 C13.5323086,10.2245863 13.4362338,10.0571548 13.3221615,9.90251704 C13.2462016,9.79961062 13.1623016,9.70254485 13.0709908,9.61215408 C12.8883693,9.4319288 12.6761049,9.27923794 12.4379029,9.16325963 L12.1020381,9 L12.0014639,9.37852872 C11.971821,9.48977889 11.9498535,9.60186344 11.9352967,9.71394799 C11.9157112,9.86302322 11.9090945,10.0120985 11.9149172,10.1595049 C11.9220633,10.3439021 11.9487948,10.5252399 11.9932592,10.7012933 C12.1176536,11.1932972 12.3828518,11.640801 12.7594755,11.9759421 C12.7862071,11.9998609 12.8137327,12.0232235 12.8417876,12.0460298 C12.8978974,12.0916423 12.9561245,12.1347518 13.016469,12.1753581 C13.1069858,12.2362676 13.2022665,12.2913364 13.3023114,12.3400083 L13.5497768,12.4604367 L12.8955153,14.2710332 C12.9106015,14.137533 12.9153655,14.0045891 12.9106015,13.8727576 C12.9029261,13.6750104 12.8732832,13.4806008 12.8232607,13.292588 C12.7899125,13.1674315 12.7473008,13.0453344 12.6962197,12.9274093 C12.6194657,12.7505215 12.5231263,12.5828118 12.4093186,12.4284522 C12.3333587,12.3255458 12.2494587,12.2282019 12.1581479,12.1380893 C11.9755264,11.9575859 11.7629973,11.8051731 11.5247953,11.6891948 L11.1891952,11.5259352 L11.088621,11.9041858 C11.0589781,12.0157141 11.0370106,12.1277986 11.0221892,12.2396051 C11.0026037,12.3889584 10.9962516,12.5380337 11.0020743,12.6854401 C11.006309,12.7958559 11.0176898,12.9054374 11.0356873,13.01335 C11.1312327,13.5890697 11.4162811,14.1186205 11.846368,14.5018773 C11.8733642,14.5257961 11.9008898,14.5491587 11.9289447,14.571965 C12.0689545,14.6857183 12.2229918,14.7847309 12.3894685,14.8656654 L12.6369339,14.9860937 L11.9352967,16.9276874 L12.1165949,17 L12.818232,15.0584063 L13.0794602,15.1410096 C14.2043028,15.4970102 15.4085462,14.9432624 15.9230624,13.8338201 L16.0871571,13.4806008 L15.7327655,13.3685162 C14.7272885,13.0506188 13.659879,13.4605757 13.0768135,14.3433458" id="Fill-7" fill="#FFFFFF"></path>
            <path d="M16.3225601,7.9673145 C16.5806545,8.06530368 16.8693253,7.93553423 16.9673145,7.67743987 C17.0653037,7.41934551 16.9355342,7.13067468 16.6774399,7.0326855 C16.4193455,6.93469632 16.1306747,7.06446577 16.0326855,7.32256013 C15.9346963,7.58065449 16.0644658,7.86932532 16.3225601,7.9673145" id="Fill-9" fill="#FFFFFF"></path>
            <path d="M16.0326855,9.32256013 C15.9346963,9.58065449 16.0644658,9.86932532 16.3225601,9.9673145 C16.5806545,10.0653037 16.8690846,9.93553423 16.9673145,9.67743987 C17.0653037,9.41934551 16.9355342,9.13067468 16.6774399,9.0326855 C16.4193455,8.93469632 16.1306747,9.06446577 16.0326855,9.32256013" id="Fill-11" fill="#FFFFFF"></path>
            <path d="M15.3225601,8.9673145 C15.5806545,9.06530368 15.8693253,8.93553423 15.9673145,8.67743987 C16.0653037,8.41934551 15.9355342,8.13067468 15.6774399,8.0326855 C15.4193455,7.93469632 15.1306747,8.06446577 15.0326855,8.32256013 C14.9346963,8.58065449 15.0644658,8.86932532 15.3225601,8.9673145" id="Fill-13" fill="#FFFFFF"></path>
            <path d="M9.96513829,13.3464349 L7.66502221,11 L0.76670536,11 C0.343305239,11 0,11.3504839 0,11.7827375 L0,28.2175588 C0,28.6498124 0.343305239,29 0.76670536,29 L22.2332946,29 C22.6566948,29 23,28.6498124 23,28.2175588 L23,14.1291724 C23,13.6969188 22.6566948,13.3464349 22.2332946,13.3464349 L9.96513829,13.3464349 Z" id="Fill-15" fill="#E5EEEC"></path>
            <path d="M4.66259834,6.08638301 L5.3928878,5.85876958 C5.56108931,5.80640242 5.58283304,5.76942385 5.53484687,5.63988401 L5.47711352,5.48324188 C5.42912735,5.35347237 5.38763931,5.336476 5.2194378,5.38884317 L4.48914834,5.6164566 L4.66259834,6.08638301 Z M5.83426056,5.25953302 L5.96622251,5.617605 C6.05469701,5.85693214 5.97097114,6.00530578 5.6960504,6.09097662 L4.77081714,6.3794554 L4.94176785,6.84249139 C4.95251476,6.87166082 4.93726915,6.89646632 4.90327895,6.90703163 L4.61836109,6.995918 C4.58162168,7.00717235 4.55812845,6.99453992 4.54738155,6.96560017 L4.00403819,5.49334782 C3.99329129,5.46440807 4.00353834,5.44121034 4.04027775,5.42972631 L5.3061628,5.03490544 C5.58133347,4.94923459 5.74578606,5.02020588 5.83426056,5.25953302 Z" id="Fill-17" fill="#FFFFFF"></path>
            <path d="M6.78506526,5.58957242 L7.386904,5.38259599 C7.58913104,5.31321449 7.64424195,5.22327552 7.58636397,5.05040581 L7.41088531,4.52689092 C7.35392969,4.35635728 7.25546795,4.31641036 7.05324091,4.38602546 L6.45140217,4.5930019 L6.78506526,5.58957242 Z M7.09705293,4.03841718 C7.40488999,3.93282649 7.65392671,4.04776149 7.75446375,4.34794741 L7.96637556,4.98055711 C8.0669126,5.28097663 7.93824363,5.52556391 7.63063716,5.63138821 L6.57061697,5.99581625 C6.5369509,6.00726302 6.51504489,5.99464821 6.50512954,5.96498003 L6.00359725,4.46755456 C5.99391249,4.43811999 6.00336666,4.41452561 6.03703274,4.40284522 L7.09705293,4.03841718 Z" id="Fill-19" fill="#FFFFFF"></path>
            <path d="M8.71916941,4.49860775 L9.82959162,4.05784923 C9.86883731,4.04197517 9.89798301,4.0561605 9.91125729,4.1024317 L9.99523153,4.39188001 C10.0085058,4.43781347 9.99378867,4.4732768 9.95454298,4.48881311 L8.84412077,4.92957163 L9.08738634,5.76853267 C9.09979491,5.81142641 9.08219206,5.84756523 9.0426578,5.86310155 L8.71397513,5.99380925 C8.67184373,6.01069655 8.64442946,5.99212052 8.63202089,5.94922678 L8.00466698,3.78461272 C7.99225841,3.74171898 8.00408983,3.70760664 8.04622124,3.69071934 L9.77216594,3.00577047 C9.81141163,2.98989641 9.84171162,3.0074592 9.85412018,3.05001519 L9.93896013,3.34284097 C9.95136869,3.38573471 9.93636299,3.42086029 9.8971173,3.43673435 L8.56478379,3.96564457 L8.71916941,4.49860775 Z" id="Fill-21" fill="#FFFFFF"></path>
        </g>
    </g>
</svg>