<?xml version="1.0" encoding="UTF-8"?>
<svg width="55px" height="70px" viewBox="0 0 55 70" version="1.1" xmlns="http://www.w3.org/2000/svg" xmlns:xlink="http://www.w3.org/1999/xlink">
    <!-- Generator: Sketch 48.2 (47327) - http://www.bohemiancoding.com/sketch -->
    <title>avataaar</title>
    <desc>Created with Sketch.</desc>
    <defs>
        <path d="M19.8636364,37.6986413 C15.3679801,35.562988 12.1337687,31.2029912 11.5832294,26.0408782 C10.0591373,25.8271599 8.88636364,24.5180704 8.88636364,22.9350649 L8.88636364,19.3006494 C8.88636364,17.7465831 10.0166498,16.4565094 11.5,16.2076504 L11.5,14.6363636 C11.5,6.55292321 18.0529232,1.48490392e-15 26.1363636,0 C34.2198041,-1.48490392e-15 40.7727273,6.55292321 40.7727273,14.6363636 L40.7727273,16.2076504 C42.2560774,16.4565094 43.3863636,17.7465831 43.3863636,19.3006494 L43.3863636,22.9350649 C43.3863636,24.5180704 42.21359,25.8271599 40.6894978,26.0408782 C40.1389586,31.2029912 36.9047472,35.562988 32.4090909,37.6986413 L32.4090909,42.5330573 C43.4882994,43.1819889 52.2727273,52.3722808 52.2727273,63.6142857 L0,63.6142857 C-1.37674854e-15,52.3722808 8.78442787,43.1819889 19.8636364,42.5330573 L19.8636364,37.6986413 Z" id="path-1"></path>
        <path d="M43.34937,8.04363885 C53.1969399,9.937337 60.6363636,18.5998832 60.6363636,29 L8.36363636,29 C8.36363636,18.5054718 15.9387422,9.78020431 25.9194081,7.9937435 C25.8900407,8.18264058 25.875,8.37427411 25.875,8.56818182 C25.875,11.6986322 29.7950523,14.2363636 34.6306818,14.2363636 C39.4663114,14.2363636 43.3863636,11.6986322 43.3863636,8.56818182 C43.3863636,8.39132545 43.3738518,8.21636088 43.34937,8.04363885 Z" id="path-3"></path>
        <rect id="path-5" x="0" y="0" width="69" height="73"></rect>
        <path d="M5.772313,40.4654254 C5.60851886,38.2667555 5.52631579,36.0607804 5.52631579,33.8520275 L5.52631579,23.6254752 C5.52631579,22.5821059 5.61823159,21.5602047 5.79440758,20.5674271 C4.75646808,12.8731032 8.58059308,6.75346657 13.1578947,3.38928571 C18.395959,-0.458757322 27.2215629,-1.56905223 30.2755444,3.00397728 C32.5521955,2.00255565 35.9260656,2.91533619 38.4210526,5.21428571 C41.0855902,7.81265325 43.1808231,13.7318654 41.5084698,18.2888506 C41.6955222,19.2274905 41.7935464,20.1976092 41.7935464,21.1898143 C41.7935464,30.4883952 44.0186733,39.651979 48.2830479,47.9150726 L50.5020363,52.2148143 C52.4317509,55.9540289 52.1245799,60.2572128 50.0681324,63.5967497 C47.7434077,54.9424505 40.0573463,48.4838614 30.7894737,48.000508 L30.7894737,43.163972 C35.3663388,40.9897405 38.6446886,36.5257983 39.1442169,31.2524515 C40.6702443,31.02974 41.8421053,29.7156312 41.8421053,28.1278195 L41.8421053,24.7971805 C41.8421053,23.2324456 40.7040597,21.9335155 39.2105263,21.6829481 L39.2105263,21.6392857 C37.622066,16.0245973 32.9551358,13.4476552 30.1130747,10.8918902 C25.6671991,15.8183852 11.7954318,15.8357354 7.10526316,25.55 L7.10526316,28.1278195 C7.10526316,29.7156312 8.27712411,31.02974 9.80315149,31.2524515 C10.3026798,36.5257983 13.5810296,40.9897405 18.1578947,43.163972 L18.1578947,43.2785714 C18.9290451,54.7122257 16.4101216,69.0364733 0,64.6571429 C3.67838105,62.5244961 5.57823456,48.5540383 5.52631579,40.4107143 L5.772313,40.4654254 Z M23.9500533,69.0892857 L40.2214351,69.0892857 L23.9500533,69.0892857 Z" id="path-7"></path>
        <filter x="-2.9%" y="-7.7%" width="107.6%" height="131.1%" filterUnits="objectBoundingBox" id="filter-9">
            <feOffset dx="0" dy="2" in="SourceAlpha" result="shadowOffsetOuter1"></feOffset>
            <feColorMatrix values="0 0 0 0 0   0 0 0 0 0   0 0 0 0 0  0 0 0 0.16 0" type="matrix" in="shadowOffsetOuter1" result="shadowMatrixOuter1"></feColorMatrix>
            <feMerge>
                <feMergeNode in="shadowMatrixOuter1"></feMergeNode>
                <feMergeNode in="SourceGraphic"></feMergeNode>
            </feMerge>
        </filter>
    </defs>
    <g id="æ¡ˆä¾‹åˆ—è¡¨" stroke="none" stroke-width="1" fill="none" fill-rule="evenodd">
        <g id="Avataaar/Default" transform="translate(-8.000000, -3.000000)">
            <g id="Body" stroke-width="1" fill-rule="evenodd" transform="translate(8.363636, 9.385714)">
                <mask id="mask-2" fill="white">
                    <use xlink:href="#path-1"></use>
                </mask>
                <use fill="#D0C6AC" xlink:href="#path-1"></use>
                <g id="Skin/ðŸ‘¶ðŸ»-05-Pale" mask="url(#mask-2)" fill="#FFDBB4">
                    <g transform="translate(-8.363636, 0.000000)" id="Color">
                        <rect x="0" y="0" width="69" height="64"></rect>
                    </g>
                </g>
                <path d="M40.7727273,24.4707792 L40.7727273,26.5564935 C40.7727273,34.6399339 34.2198041,41.1928571 26.1363636,41.1928571 C18.0529232,41.1928571 11.5,34.6399339 11.5,26.5564935 L11.5,24.4707792 C11.5,32.5542197 18.0529232,39.1071429 26.1363636,39.1071429 C34.2198041,39.1071429 40.7727273,32.5542197 40.7727273,24.4707792 Z" id="Neck-Shadow" fill-opacity="0.100000001" fill="#000000" mask="url(#mask-2)"></path>
            </g>
            <g id="Clothing/Graphic-Shirt" transform="translate(0.000000, 44.321429)">
                <mask id="mask-4" fill="white">
                    <use xlink:href="#path-3"></use>
                </mask>
                <use id="Clothes" fill="#E6E6E6" fill-rule="evenodd" xlink:href="#path-3"></use>
                <g id="Color/Palette/Red" mask="url(#mask-4)" fill="#FF5C5C" fill-rule="evenodd">
                    <rect id="ðŸ–Color" x="0" y="0" width="69" height="29"></rect>
                </g>
                <g id="Clothing/Graphic/Skull" mask="url(#mask-4)" fill="#FFFFFF" fill-rule="evenodd">
                    <g transform="translate(20.125000, 15.290909)" id="Fill-49">
                        <path d="M17.2107184,5.43513034 C17.1321881,6.19252938 15.7097867,6.60070132 15.188154,6.10273156 C14.9477859,5.87319487 14.9435914,5.40079588 14.8905776,5.09322632 C14.7903757,4.51146127 14.717671,3.93197717 14.6926205,3.34144842 C14.6773572,2.98021626 14.5857773,2.69113449 14.9678263,2.63735184 C15.2007375,2.60469808 15.4405231,2.76484554 15.6309068,2.89161894 C16.2760441,3.32067968 17.2998515,4.56584418 17.2107184,5.43513034 M13.9414556,3.83881793 C14.0164905,4.60942253 14.2894825,5.94942698 13.6947957,6.59481884 C13.1632594,7.17166182 12.0709418,6.59974091 11.9066572,5.92049479 C11.7027579,5.07785985 12.5064706,4.07111578 12.9993243,3.50147583 C13.1506759,3.3264421 13.4854202,2.84335861 13.7471104,3.00506673 C13.8477784,3.06713288 13.9296876,3.71732676 13.9414556,3.83881793 M14.3210578,6.84716513 C14.4915176,6.43179017 16.1435678,7.67035188 15.3632744,8.25956008 C15.2360412,8.35572058 14.2666458,8.65944852 14.0808061,8.51658834 C13.6893195,8.21550152 14.1944072,7.16265803 14.3210578,6.84716513 M19.3311545,4.78001439 C19.2142911,0.559396544 13.9899253,-0.630904846 11.1981363,1.77394815 C10.1306362,2.69341545 9.52080254,3.81924969 9.49283921,5.25889611 C9.46907038,6.47848984 9.65584213,7.62869434 10.5562614,8.46724756 C10.9466994,8.83088073 11.2046611,9.05333444 11.4118228,9.55010369 C11.6288881,10.0700427 11.7279249,10.7324817 12.1346749,11.1407737 C12.3589641,11.3659886 12.6855525,11.5477452 12.9957124,11.402484 C13.5655818,11.1354915 13.3833541,10.3178271 13.5560276,9.86199507 C14.0929236,11.2171259 15.4570681,11.6493079 15.7046601,9.92994369 C15.9763704,10.4259926 16.6867555,11.0755863 17.2071065,10.5325975 C17.421259,10.3091834 17.4535333,9.94651067 17.4898857,9.65262688 C17.5544344,9.13112721 17.4422315,8.92620089 17.8470007,8.56857024 C18.9119375,7.62773393 19.369138,6.20357404 19.3311545,4.78001439"></path>
                    </g>
                </g>
            </g>
            <g id="Face" stroke-width="1" fill-rule="evenodd" transform="translate(19.863636, 21.378571)" fill="#000000">
                <g id="Mouth/Default" transform="translate(0.522727, 13.557143)" fill-opacity="0.699999988">
                    <path d="M10.3703704,3.75 C10.3703704,5.68299662 11.9954109,7.25 14,7.25 C16.0045891,7.25 17.6296296,5.68299662 17.6296296,3.75" id="Mouth"></path>
                </g>
                <g id="Nose/Default" transform="translate(7.318182, 10.428571)" fill-opacity="0.16">
                    <path d="M4.28571429,2 C4.28571429,3.1045695 5.72479902,4 7.5,4 C9.27520098,4 10.7142857,3.1045695 10.7142857,2" id="Nose"></path>
                </g>
                <g id="Eyes/Wink-ðŸ˜‰" transform="translate(0.000000, 2.085714)" fill-opacity="0.599999964">
                    <ellipse id="Eye" cx="7.76785714" cy="5.5" rx="1.55357143" ry="1.5"></ellipse>
                    <path d="M18.2317816,6.05122225 C18.7098954,5.10152135 19.7864548,4.43939435 21.0378974,4.43939435 C22.2849224,4.43939435 23.3582965,5.09685486 23.8389275,6.04117541 C23.981703,6.32169378 23.778533,6.55126477 23.5735918,6.38115006 C22.9389318,5.85434019 22.0376559,5.52534145 21.0378974,5.52534145 C20.0694077,5.52534145 19.1933364,5.83408232 18.5625296,6.33230465 C18.33189,6.51446794 18.091943,6.32899046 18.2317816,6.05122225 Z" id="Winky-Wink" transform="translate(21.038524, 5.439394) rotate(-4.000000) translate(-21.038524, -5.439394) "></path>
                </g>
                <g id="Eyebrow/Outline/Default" fill-opacity="0.599999964">
                    <g id="I-Browse" transform="translate(3.107143, 1.500000)">
                        <path d="M0.939974245,2.78964419 C1.95365621,1.41246668 4.73267564,0.640209302 7.126498,1.20779511 C7.40425017,1.27365137 7.68470651,1.10964003 7.75291478,0.841465529 C7.82112305,0.573291026 7.65125416,0.30250559 7.373502,0.23664933 C4.59348692,-0.422504473 1.37545437,0.47174958 0.0957400405,2.21035581 C-0.0699390996,2.43544573 -0.0152603157,2.74759527 0.217868523,2.90756134 C0.450997361,3.06752741 0.774295105,3.0147341 0.939974245,2.78964419 Z" id="Eyebrow" fill-rule="nonzero"></path>
                        <path d="M15.9578314,2.78964419 C16.9715133,1.41246668 19.7505328,0.640209302 22.1443551,1.20779511 C22.4221073,1.27365137 22.7025637,1.10964003 22.7707719,0.841465529 C22.8389802,0.573291026 22.6691113,0.30250559 22.3913591,0.23664933 C19.6113441,-0.422504473 16.3933115,0.47174958 15.1135972,2.21035581 C14.947918,2.43544573 15.0025968,2.74759527 15.2357257,2.90756134 C15.4688545,3.06752741 15.7921522,3.0147341 15.9578314,2.78964419 Z" id="Eyebrow" fill-rule="nonzero" transform="translate(18.901825, 1.509800) scale(-1, 1) translate(-18.901825, -1.509800) "></path>
                    </g>
                </g>
            </g>
            <g id="Top" stroke-width="1" fill-rule="evenodd">
                <mask id="mask-6" fill="white">
                    <use xlink:href="#path-5"></use>
                </mask>
                <g id="Mask"></g>
                <g id="Top/Long-Hair/Straight" mask="url(#mask-6)">
                    <g transform="translate(-0.261364, 0.000000)">
                        <g id="Hair" stroke-width="1" fill="none" fill-rule="evenodd" transform="translate(10.526316, 3.910714)">
                            <mask id="mask-8" fill="white">
                                <use xlink:href="#path-7"></use>
                            </mask>
                            <use fill="#272C2E" xlink:href="#path-7"></use>
                            <g id="Color/Hair/Brown-Dark" mask="url(#mask-8)" fill="#4A312C">
                                <g transform="translate(-10.263158, -3.910714)" id="Color">
                                    <rect x="0" y="0" width="69" height="73"></rect>
                                </g>
                            </g>
                        </g>
                        <path d="M17.6315789,29.4607143 C22.3217476,19.7464496 36.1935149,19.7290995 40.6393905,14.8026045 C43.4756701,17.3531703 48.1294018,19.9248273 49.7271099,25.5157724 C48.1294018,20.6659224 43.4756701,18.9534832 40.6393905,16.740038 C36.1935149,21.0153742 22.3217476,21.0304311 17.6315789,29.4607143 Z" id="Shadow" fill-opacity="0.16" fill="#000000" fill-rule="evenodd"></path>
                        <g id="Facial-Hair/-Blank" fill="none" transform="translate(12.894737, 18.771429)"></g>
                        <g id="Top/_Resources/Kurt" fill="none" transform="translate(16.315789, 22.160714)" fill-rule="evenodd" stroke-width="1">
                            <g id="Kurts" filter="url(#filter-9)" transform="translate(1.302817, 0.518519)">
                                <path d="M17.1971831,2.88065844 C14.3212301,2.88065844 13.9064147,0.525415101 7.99163215,0.192043896 C2.0807348,-0.0734222097 0.212417835,1.67208883 0.202319801,2.88065844 C0.211899754,3.99370209 -0.0917948025,6.88625419 3.74291632,10.2743484 C7.59197541,14.296095 11.5352493,12.9323263 12.9484673,11.6186557 C14.3662162,11.0115475 15.9830474,5.56360909 17.1971831,5.56927298 C18.4113188,5.57493686 20.02815,11.0115475 21.4458989,11.6186557 C22.8591169,12.9323263 26.8023908,14.296095 30.6514499,10.2743484 C34.486161,6.88625419 34.1824664,3.99370209 34.1920464,2.88065844 C34.1819484,1.67208883 32.3136314,-0.0734222097 26.4027341,0.192043896 C20.4879515,0.525415101 20.0731361,2.88065844 17.1971831,2.88065844 Z" id="It!" fill="#F4F4F4" fill-rule="nonzero"></path>
                                <path d="M14.3647059,5.56927298 C14.4639679,3.58383124 10.9998523,1.46285289 7.28351284,1.53635117 C3.56902631,1.61376154 3.08553792,3.9870699 3.03479702,4.89711934 C2.94390462,7.00572011 5.21503613,11.7454192 9.40787075,11.6186557 C13.6006981,11.4867013 14.3073381,6.8792968 14.3647059,5.56927298 Z" id="Did" fill="#2F383B" fill-rule="nonzero"></path>
                                <path d="M31.3595692,5.56927298 C31.4588312,3.58383124 27.9947156,1.46285289 24.2783761,1.53635117 C20.5638896,1.61376154 20.0804012,3.9870699 20.0296603,4.89711934 C19.9387679,7.00572011 22.2098994,11.7454192 26.4027341,11.6186557 C30.5955613,11.4867013 31.3022014,6.8792968 31.3595692,5.56927298 Z" id="Courtney" fill="#2F383B" fill-rule="nonzero" transform="translate(25.694615, 6.577503) scale(-1, 1) translate(-25.694615, -6.577503) "></path>
                            </g>
                        </g>
                    </g>
                </g>
            </g>
        </g>
    </g>
</svg>